<svg xmlns="http://www.w3.org/2000/svg" viewBox="0 0 3000 2000"><path d="M0 0v499l36-35 14-11.944L62 462l30 30 121 121 34 34 10.369 13L247 672l-31 31L97 822l-34 34-13 10.944L36 855 0 820v1180h671c-14.272-20.26-36.464-37.46-54-55-4.287-4.29-18.944-14.66-18.944-21 0-4.54 8.005-10.06 10.944-13l33-33 24-24c2.391-2.39 6.247-7.94 10-7.94 6.123 0 15.877 13.82 20 17.94l41 41c4.837 4.84 11.427 14.56 18 16.82 6.229 2.15 17.065-12.88 21-16.82 19.44-19.44 44.181-38.54 60-61h1c15.046 21.36 38.512 39.51 57 58 4.45 4.45 19.944 15.45 19.944 22 0 6.34-14.657 16.71-18.944 21-17.536 17.54-39.728 34.74-54 55h627c5.43 0 12.85 1.3 18-.6 7.2-2.66 13.68-12.08 19-17.4l41-41 147-147 51-51c3.57-3.57 12.48-16.09 18-15.37 6.53.86 15.48 13.85 20 18.37l52 52 136 136 43 43c6.85 6.85 13.79 16.22 22 21.4 9.17 5.79 31.27 1.6 42 1.6h108c-15.3-21.72-39.19-40.19-58-59l-116-116-116-116c-18.81-18.81-37.28-42.7-59-58v-1l52-51v-1l-52-51v-1l36-35 69-69 31-31 15-17c-22.26-17.95-41.73-41.73-62-62l-126-126c-20.39-20.39-40.44-46.41-64-63v-1l30-29 54-54 168-168v-1l-246-246-62-62c-4.45-4.45-19.94-15.451-19.94-22 0-4.029 6.36-8.422 8.94-11l26-26 106-106 280-280 90-90c15-14.997 33.79-29.668 46-47h-174l14.37 18L2045 31v1l14 13v1c-11.47 8.08-21.08 20.082-31 30l-56 56-177 177-70 70c-6.55 6.547-18.01 23.431-27 25.793-4.54 1.191-10.23-7.024-13-9.793l-32-32-103-103-24-24c-2.33-2.336-7.87-6.207-7.37-10 .61-4.665 8.2-9.827 11.37-13v-1l-14-15c14.26-7.222 27.61-26.612 39-38l85-85 29-29c3.37-3.373 10.46-8.202 11.65-13 .9-3.583-3.47-6.805-5.65-9-6.81-6.86-13.81-16.226-22-21.397C1647.63-1.784 1638.12 0 1632 0H685l17 17v1c-13.51 9.517-29.483 25.49-39 39h-1c-9.517-13.51-25.49-29.483-39-39v-1l17-17H0z" fill="#ebf3f9"/><path d="M623 17v1l39 39h1l8-9-5 3V0l-26 1.028L623 17z" fill="#f79602"/><path d="M666 0v51c13.838-5.943 25.494-22.494 36-33-10.337-14.674-19.037-18-36-18z" fill="#e35e01"/><path d="m1652 0 21 22 6.94 9-9.94 12-31 31-79 79-40 41 34-33 63-63 70.04-71L1714 0h-62z" fill="#f79602"/><path d="M1914 162v-1l-1-3c-24.76-19.054-45.62-45.365-67.63-67.371-7.91-7.915-18.43-23.39-29.37-26.629-1.79-10.903-18.16-21.969-25.75-29.371-10.07-9.831-21.96-27.36-34.55-33.69-7.24-3.64-32.04-2.987-39.7-.35-6.28 2.162-11.45 8.862-16 13.411l-29 29-106 106-34 34c-3.6 3.603-11.38 8.89-12.65 14-1.04 4.167 5.13 8.478 7.65 11l29 29 107 107 26 26c2.36 2.36 6.1 7.619 10 6.654 5.96-1.477 13.72-11.397 18-15.655 14.03-13.968 28-27.999 42-41.999 52.17-52.175 103.84-104.843 156-157z" fill="#023342"/><path d="M1756 0c9.07 15.891 28.94 30.927 42.25 43.407C1804.22 49 1813.61 55.929 1816 64l21.37 19.407 50.97 51.477L1913 158l1 3v1c-12.54 8.834-27.17 23.46-36 36 17.33-12.209 32-31.003 47-46l92-92 32-32c3.13-3.13 10.1-7.923 7.34-13-12.97-23.821-53.51-15-76.34-15h-224z" fill="#028486"/><path d="M1988 891c-2.48-4.348-4.98-6.652 0-10v-1l-4 1v-1l2-6c5.84-.19 7.81-2.16 8-8 5.84-.19 7.81-2.16 8-8 5.84-.19 7.81-2.16 8-8l12-3-4-4v3h-1v-3l-3-4 3 2-4-2-5-6 2 1c-15.82-22.457-40.56-41.56-60-61l-121-121-47-47c-3.63-3.625-14.94-11.53-14.94-17 0-3.141 3.95-6.003 5.94-8l17-17 69-69 277-277 77-77 19-19c2-1.989 4.86-5.944 8-5.944 5.69 0 14.21 12.152 18 15.944l47 47 125 125c20.07 20.066 39.83 45.673 63 62l6-7-4 3-1 5 1 2 4 2 1-1-2-7c5.84-.19 7.81-2.16 8-8 5.84-.19 7.81-2.16 8-8 5.84-.19 7.81-2.16 8-8 5.84-.19 7.81-2.16 8-8 5.84-.19 7.81-2.16 8-8 5.84-.19 7.81-2.16 8-8 5.84-.19 7.81-2.16 8-8h11l-2-6-5 2 3-2c-7.73-11.682-19.14-21.141-29-31l-52-52c-52.49-52.487-104.49-105.494-157-158l-40-40c-5.63-5.631-11.82-14.382-19-17.972C2260.27-.84 2255.05 0 2251 0c-10.18 0-23.13-2.157-33 .318-9.4 2.357-19.3 16.98-26 23.682l-61 61-229 229-183 183-46 46c-3.68 3.681-14.79 11.411-14.79 17 0 6.685 15.28 17.487 19.79 22l60 60 167 167 54 54c9.28 9.282 18.26 20.436 29 28z" fill="#f79602"/><path d="M2264 0c16.08 22.823 41.24 42.243 61 62l124 124h1l124-124c19.76-19.757 44.92-39.177 61-62h-35c-4.87 0-11.37-1.104-16 .603-9.54 3.518-18.89 17.285-26 24.397l-60 60-37 37c-3.34 3.342-9.07 11.721-14 12.369-4.74.623-11.02-8.386-14-11.369l-38-38-60-60c-7.11-7.112-16.46-20.879-26-24.397-12.06-4.447-32.13-.603-45-.603z" fill="#ebf3f9"/><path d="M2310 0c13.93 19.772 36.05 38.587 54 54.83 4.13 3.738 13.28 15.898 19 15.824 6.31-.081 15.16-12.416 19.4-16.654 11.68-11.676 23.61-23.17 35.45-34.69 6.02-5.85 13.99-12.006 18.15-19.31h-146z" fill="#023342"/><path d="M2382 72c12.47 17.698 31.69 32.685 47 48 3.99 3.995 11.1 14.383 17 15.079 6.01.709 15.13-12.209 19-16.079l45-45c3.68-3.681 14.79-11.411 14.79-17 0-5.36-10.28-12.49-13.79-16l-31-31c-6.36-6.358-12.86-12.846-22.71-9.486-8.19 2.79-16.79 15.28-22.87 21.356-16.81 16.805-33.48 35.71-52.42 50.13z" fill="#028486"/><path d="m2470 0 41 42 15 12.793L2541 42l41-42h-72l-18 18c0 4.19-4.64-1.636-6-3-4.97-4.97-9.97-11.51-16-15z" fill="#e35e01"/><path d="M2471 0c3.99 5.922 9.78 11.093 15 15.977 1.54 1.44 5.4 5.356 6 2.023l18-17c-10.27-4.311-27.83-1-39-1m111 0 1 1-1-1z" fill="#f79602"/><path d="M2139 1042v4l-6 4 5-4 5 2v1l-11 4v-2l-10 4c.36 10.04 11.45 17.45 19 25 18.52 18.52 36.47 37.47 55 56l18 18c1.55 1.55 6 4.59 6 7 0 2.17-3.63 4.63-5 6l-16 16-62 62c-5.86 5.86-12.13 11.13-18 17-1.71 1.71-5.42 7.34-6 3h-1l-2 3 1-3h-2v3l-1-2h-1c-1.56 2.61-2.59 2.35-2 0-17.53 4.17-39 1-57 1h-164c-6.9 0-16.52 1.92-23 0 6.34 12.2 20.35 22.35 30 32l62 62 23 23c2.66 2.66 7.8 6.21 8.79 10 1.08 4.12-5.31 8.46-7.75 11-8.7 9.03-17.4 18.05-26.19 27-37.61 38.33-75.88 76.03-113.85 114v1l51 51h1l358-358 115-115c18.49-18.49 41.95-36.64 57-58h1c12.47 17.7 31.69 32.69 47 48l92 92 288 288 77 77 19 19c2.02 2.01 4.83 5.79 8 5.79 7.32 0 20-17.79 25-22.79 6.18-6.18 23.17-17.83 23.79-27 .32-4.65-3.83-8.02-6.79-11l-22-22-90-90-242-242-78-78c-12.78-12.78-28.6-25.23-39-40l3 2-2-2v-1l28-27 11-11v-3h1v3l1 1 5 5c10.09 2.83 21.17 18.91 28.88 26.27 24.19 23.06 47.49 47.1 71.12 70.73 7.71 7.71 23.47 30.46 35 30l8 2v-1l-2-2 9 1 2-1-27.83-29L2593 1027l-30-29.83-12.37-13.17 7.37-12-10-8 232-232 74-74 38-39h1c9.05 12.853 23.52 26.414 36 36h1c18.32-20.347 40.54-42.909 62-60l1 3h1l1-4-3 1 1-3c-26.01-22.458-48.69-49.689-73-74l-19-19c-2.07-2.074-5.96-4.873-6.37-8-.42-3.185 3.41-6.023 5.37-8 6.64-6.696 13.33-13.334 20-20l58-58c6.25-6.25 19.48-15.202 21.68-24 2.84-11.33.32-26.313.32-38V0h-331c-9.57 0-24-2.714-33 .603-9.87 3.64-19.63 18.03-27 25.397l-60 60-76 76c-4.39 4.388-24.37 19.43-21.25 26 4.52 9.502 17.82 18.573 25.25 26l58 58 195 195 69 69c4.42 4.418 22.23 17.444 21.37 24-.54 4.079-6.64 8.273-9.37 11l-25 25-97 97-325 325-89 89-24 24c-2.66 2.66-6.21 7.8-10 8.79-3.23.85-6-2.82-8-4.79-6.04-5.96-12-12-18-18l-49-49c-8.65-8.65-17-18.95-27-26z" fill="#023342"/><path d="M1962 116h4l9 12c23.55-16.593 43.61-42.609 64-63 3.97-3.974 20.19-15.809 17.25-22-1.76-3.706-8.7-11.412-13.25-9.248-8.45 4.018-16.41 15.654-23 22.248l-39 39c-6.33 6.333-15.11 12.816-19 21z" fill="#e35e01"/><path d="m2550 32 1 1-1-1m-1 1 1 1-1-1m-1 1 1 1-1-1m-1 1 1 1-1-1m-1 1 1 1-1-1m-1 1 1 1-1-1m-1 1 1 1-1-1m-1 1 1 1-1-1m-1 1 1 1-1-1m-1 1 1 1-1-1m-1 1 1 1-1-1m-1 1 1 1-1-1m-1 1 1 1-1-1m-480 1 1 1-1-1m479 0 1 1-1-1M672 46l1 1-1-1m1385 0 1 1-1-1m479 0 1 1-1-1m-480 1 1 1-1-1m479 0 1 1-1-1m-480 1 1 1-1-1m479 0 1 1-1-1m-480 1 1 1-1-1m479 0 1 1-1-1m-480 1 1 1-1-1m479 0 1 1-1-1m-480 1 1 1-1-1m479 0 1 1-1-1m-480 1 1 1-1-1m479 0 1 1-1-1m-480 1 1 1-1-1m479 0 1 1-1-1m-480 1 1 1-1-1m479 0 1 1-1-1m-480 1 1 1-1-1m479 0 1 1-1-1m-480 1 1 1-1-1m479 0 1 1-1-1m-480 1 1 1-1-1z" fill="#f79602"/><path d="M639 125h1l18-18c-3.426-4.863-11.009-15.16-17-16.654-4.711-1.175-18.829 12.943-17.654 17.654 1.509 6.054 11.33 12.676 15.654 17z" fill="#028486"/><path d="M2617 94v33h-33c0 6.946 3.45 27.341-1.6 32.397-5.06 5.055-25.45 1.603-32.4 1.603v33h34v-33h33c0-6.946-3.45-27.341 1.6-32.397 4.95-4.95 24.62-1.603 31.4-1.603V94h-33z" fill="#ebf3f9"/><path d="M2650 94v33h-32v1h33l-1-34z" fill="#028486"/><path d="M629 100c-5.563 5.77-5.763 9.176 1 14l-1-14z" fill="#023342"/><path d="M1676 137h-1v7h-33v-33h33c-5.27-2.211-27.76-3.645-32.4.028-1.96 1.555-1.58 4.763-1.6 6.972-.04 5.214-2.72 22.545 1.6 25.972 3.64 2.882 28.15 2.872 31.8 0 1.97-1.557 1.57-4.76 1.6-6.972z" fill="#028486"/><path d="M1642 111v33h33v-33h-33z" fill="#ebf3f9"/><path d="m2239 113-338 338-81 81-19 19-5.65 9 16.65 18 43 43 111 111 53 53h1l-2-6 4-1 2 11h4v-1l-1-3-5-3h1v2h1l-1-3 73 3 1 6 4-1c10.98 18.492 33.75 34.747 49 50l58 58c9.92 9.918 19.53 21.919 31 30-16.08-22.823-41.24-42.243-61-62l-122-122-122-122c-19.76-19.757-39.18-44.923-62-61v-1l35-34 66-66 205-205 42-42 18.97-20 1.03-20v-40l-1-19z" fill="#028486"/><path d="M2240 113c9.89 14.037 24.86 25.859 37 38l71 71 223 223 85 85 21 21c2.19 2.197 6.94 5.542 6.94 9 0 6.759-16.33 18.387-20.94 23l-65 65-260 260-74 74c-5.67 5.666-11.29 11.372-17 16.998-2 1.972-4.77 5.642-8 4.792-3.79-.99-7.34-6.129-10-8.79l-23-23-84-84-221-221-71-71c-11.82-11.823-26.37-23.33-36-37l-22 21-5.65 9 17.65 19 48 48 178 178-2-1v1l5 5 4 2-3-2 3 4v3h1v-3l4 4-12 3c-.41 5.368-2.63 7.594-8 8-.41 5.368-2.63 7.594-8 8-.41 5.368-2.63 7.594-8 8l-2 6v1l4-1v1c-9.34 4.14 2.88 12.871 7 17l44 44 149 149 38 38c3.16 3.16 9.12 11.79 14 11.79 3.5 0 6.77-4.57 9-6.79l21-21 85-85 340-340 96-96 23-23c2.41-2.414 7.54-6.095 7.08-10-.76-6.426-12.7-14.616-17.08-19l-47-47-128-128c-20.71-20.709-41.08-47.149-65-64l1 5h-11c-.41 5.368-2.63 7.594-8 8-.41 5.368-2.63 7.594-8 8-.41 5.368-2.63 7.594-8 8-.41 5.368-2.63 7.594-8 8-.41 5.367-2.63 7.594-8 8-.41 5.367-2.63 7.594-8 8-.41 5.368-2.63 7.594-8 8l2 7-1 1-4-2-1-2 1-5 3 1 1-4c-3.81 1.063-5.65 3.058-6 7l-169-169-54-54-30-29z" fill="#e35e01"/><path d="M1963 115v1l4 2c.72-3.154-1.26-3.431-4-3m26-1 1 1-1-1z" fill="#f79602"/><path d="m2240 114-1 673h-4v4h-1v-7l-31 1h-67v-1h40v-2c-12.12 0-24.84.324-37 1.028-4.51.261-10.42.053-13 3.972v-3l-14-6v1l3 1-3 1 3 3-1-3h3l-1 5c10.98 7.998 20.35 20.35 30 30l64 64c8.38 8.379 25.27 19.804 29.4 31 1.71 4.639.6 11.108.6 16-20.26-14.272-37.46-36.464-55-54-27.78-27.777-58.2-54.417-84-84l-4 1-1-6-73-3 1 3h-1v-2h-1c1 3.036 1.86 3.494 5 3l1 3v1h-4l-2-11-4 1c9.68 22.82 35.36 41.358 53 59l116 116 39 39c3.11 3.107 9.96 12.91 15 11.65 6.93-1.72 15.04-13.691 20-18.65l50-50 185-185 142-142 35-35c3.16-3.163 11.79-9.117 11.79-14 0-3.502-4.57-6.773-6.79-9l-20-20-81-81-226-226-73-73c-12.14-12.141-23.96-27.112-38-37z" fill="#023342"/><path d="m1961 115-97 97v1c2.95 2.948 12.04 9.269 10.79 14-1.97 7.498-15.37 16.578-20.79 22-19.14 19.136-38.23 44.366-61 59l-1-1 2-3c-2.46.493-4.65.591-4-2l-4-4-3-4c-23.34 17.704-43.29 42.29-64 63-4.05 4.046-16.91 21.391-23 19.793-4.12-1.081-8.1-6.893-11-9.793l-25-25-91-91-29-29c-3.31-3.307-7.84-10.042-13-6.623-3.04 2.013-9.56 7.518-9.08 11.623.5 4.188 6.31 8.227 9.08 11l24 24 108 108 27 27c2.62 2.617 6.9 8.793 11 8.793 6.04 0 14.98-12.776 19-16.793l52-52 208-208v-1l-10-12-5-1m27 0 1 1-1-1m-1 1 1 1-1-1m-1 1 1 1-1-1z" fill="#f79602"/><path d="M2583 127v33h1l-1-33m34 1v33h1l-1-33z" fill="#028486"/><path d="M1608 144v34h-33v33h33v-33h34v-34h-34z" fill="#ebf3f9"/><path d="m1911 160 1 1-1-1m639 0v1h33l-33-1m-975 17v1h33l-33-1m-1 1v33h1l-1-33m34 0v33h1l-1-33z" fill="#028486"/><path d="m2239 192-367 367v1l247 247 80 80 41 40c0-5.097 1.3-12.336-1.03-17-4.13-8.256-14.48-15.514-20.97-22l-46-46-206-206-55-55c-4.72-4.715-18.48-14.215-19.37-21-.72-5.518 11.8-14.426 15.37-18l51-51 209-209 58-58c8.86-8.857 19.83-18.096 14-32z" fill="#ebf3f9"/><path d="M2550 194v1h34l-34-1zm-1023 15 1 1-1-1m712 0-250 250-70 70c-7.56 7.557-24.33 18.855-27.82 29-1.75 5.071 6.77 10.946 9.82 14l36 36 133 133 31 31c4.03 4.028 7.87 10.004 14 8l-3-1v-1l14 6v3l1-3 49-2v2h-40v1h69c8.7 0 21.26 3.029 29-1v7h1v-4h4c0-136.673 1-273.293 1-410V259c0-14.039 4.41-37.116-1-50zm-2117 2-21.817 22.83L100 265l-7-5 29 30h1l39-39v-1l-40-39z" fill="#028486"/><path d="m1352 211-28 28-8.79 11 8.62 11 28.17 29h1l39-39v-1l-40-39z" fill="#023342"/><path d="m1529 211 1 1-1-1m46 0v1h33l-33-1z" fill="#028486"/><path d="m1786 298 4 4c0 2.627 1.51 2.398 4 2l-2 3 1 1c8.89-3.732 15.29-12.288 22-19l39-39c6.43-6.435 17.26-13.9 21.44-22 2.25-4.374-7.93-15.123-12.44-13.894-6.27 1.707-13.48 12.373-18 16.894l-46 46c-4.5 4.502-9.99 8.864-13.76 14-1.75 2.378-2.64 6.461.76 7m690-85 1 1-1-1z" fill="#e35e01"/><path d="m289 233-16 17c5.22-3.677 14.465-10.668 16-17z" fill="#f79602"/><path d="m290 233-17 17v1l17 17h1l17-17v-1l-18-17zM83 250v1l17 14v-30l-17 15z" fill="#023342"/><path d="m2555 294 1 1-1-1m2 0 4 6-3 2h4l-5-8z" fill="#e35e01"/><path d="m2554 296 2 4h-4l1 4c-5.66 1.8-9.84 8.147-14.01 12.196-12.11 11.745-25.17 30.892-39.99 38.804v3l5 2-2-5 5-5 5 2-2-5 5-5 5 2-2-5 5-5 5 2-2-5 5-5 5 2-2-5 5-5 5 2-2-5 5-5 5 2-2-5 4-4 7 1v-1l-6-1 3-5h-1l1 2h-1l-3-3z" fill="#e35e01"/><path d="m2563 309-3 2v1l4-2-1-1z" fill="#f79602"/><path d="m1633 315 1 1-1-1m1 1 1 1-1-1m1 1 1 1-1-1m1 1 1 1-1-1m1 1 1 1-1-1m1 1 1 1-1-1m1 1 1 1-1-1m1 1 1 1-1-1m-322 1c-8.31 8.313-9.86 12.594-10 24l-7-6c3.03 4.307 12.08 16.777 18 16.079 3.86-.456 7.46-5.521 10-8.079 2.01-2.022 5.79-4.831 5.79-8 0-5.872-12.37-14.885-16.79-18m323 0 1 1-1-1m1 1 1 1-1-1m1 1 1 1-1-1m1 1 1 1-1-1m1 1 1 1-1-1m1 1 1 1-1-1m1 1 1 1-1-1m1 1 1 1-1-1m1 1 1 1-1-1m1 1 1 1-1-1m1 1 1 1-1-1z" fill="#028486"/><path d="M1301 340v1l7 6 1-13-8 6z" fill="#023342"/><path d="M1482 374v1c3.9 3.9 12.16 15.793 18 15.793 3.5 0 6.77-4.571 9-6.793 7.15-7.141 10.5-11.285 1-18 7.18 10.291 1.83 15.072-8 22 0-7.33-.12-14.671.01-22 .04-1.934 1.07-6.745-1.42-7.654-4.74-1.738-15.48 12.546-18.59 15.654z" fill="#f79602"/><path d="M1502 360v28c15.98-7.45 15.98-20.55 0-28z" fill="#e35e01"/><path d="m1687 369 1 1-1-1m1 1 1 1-1-1m17 0 1 1-1-1m-16 1 1 1-1-1m15 0 1 1-1-1m-14 1 1 1-1-1m13 0 1 1-1-1m-12 1 1 1-1-1m11 0 1 1-1-1m-10 1 1 1-1-1m9 0 1 1-1-1m-8 1 1 1-1-1m7 0 1 1-1-1m-6 1 1 1-1-1m5 0 1 1-1-1m-4 1 1 1-1-1m3 0 1 1-1-1m-1.33 1.333.66.334-.66-.334M2999 383l-70 70-36 37c10.37-7.306 19.04-18.035 28-27l50-50c7.46-7.457 25.52-19.77 28-30z" fill="#028486"/><path d="m2999 384-79 79-19 19-6.79 9 6.79 9 19 19 52 52 28 27V404l-1-20z" fill="#ebf3f9"/><path d="m49 660 43-42 13.694-15.816L90 584l-12.333-11.833L41 534l-2 1-14-18-3 1-15-20H6v2c-3.48-4.304 4.014-9.015 7-12l27-27c2.479-2.478 6.904-8.869 11-7.793 3.455.907 6.582 5.375 9 7.793l20 20 48 48c8.647 8.647 16.996 18.953 27 26l-27-28-51-51-19-18.999-8-5.794-8 5.794L23 476 .603 500 0 525v57l1.028 28L14 624l35 36z" fill="#f79602"/><path d="M6 498h1l15 20 3-1 14 18 2-1c7.446 14.252 23.932 25.9 34.985 37.463C79.75 575.401 84.425 583.098 90 584l16 18c13.285-4.856 26.966-24.966 37-35 2.644-2.644 10.333-7.962 10.333-12 0-2.729-3.604-5.267-5.333-7l-18-18-56-56c-5.728-5.728-15.237-19.813-23-22.167-4.192-1.271-10.4 7.566-13 10.167l-26 26c-2.27 2.269-8.219 6.343-8.167 9.889.029 1.94 2.23 2.404 2.167.111z" fill="#e35e01"/><path d="M207 480c-3.9 3.9-15.793 12.162-15.793 18 0 5.838 11.893 14.1 15.793 18h1l5-6-3 2c-.518-8.742 3.613-25.523-3-32z" fill="#f79602"/><path d="M210 483v29c4.172-2.411 13.793-8.533 13.793-14 0-5.291-9.875-12.24-13.793-15z" fill="#e35e01"/><path d="m2945 544 1 1-1-1m6 6 1 1-1-1m-366.4 2.028L2583 567l1.03 17.397 6.97 1.602 25.4-1.027L2618 570l-1.03-17.397-6.97-1.602-25.4 1.027z" fill="#028486"/><path d="M2584 552v33h33v-33h-33z" fill="#ebf3f9"/><path d="m2954 553 1 1-1-1m1 1 1 1-1-1M50 660l22-22h1c19.456 25.073 45.396 47.634 68.011 69.961 8.328 8.223 24.582 19.52 27.989 31.039l3-1v3h4l-21 23 28-27 51-51 18.995-19 5.084-8L244 643l-42-42-34-34-13-10.793-8 5.794L128 581l-51 51-27 28m2906-105 1 1-1-1m1 1 1 1-1-1m1 1 1 1-1-1m1 1 1 1-1-1m1 1 1 1-1-1zm25 25v2h2l-2-2z" fill="#028486"/><path d="M2550 585v34h-33v33h33v-33h34v-34h-34z" fill="#ebf3f9"/><path d="m2988 589 1 1-1-1m2 0v2h2l-2-2zm3 3-1 3 3-2-2-1z" fill="#028486"/><path d="m2995 594-1 4h-1l-1-3c-15.97 8.81-30.04 28.402-42.84 41.389-5.88 5.971-14.88 11.55-19.16 18.611h-1l-36-36h-1l-232 232-74 74-38 39c21.7 15.4 40.17 39.17 59 58l115 115c15.95 15.95 31.57 36.02 50 49l-22-23 1-1 5 1v3h1l-1-4 4 1c7.11-5.39 25.2-2 34-2 31.31 0 62.6 2 94 2l1.03 25.4 8.97 1.6h25v-28h1l1 2 1-3h1v4h1l21-2h51v-63l-.6-28-19.4-21-45-45-31-31-12-9.793-10 7.793-25 25-68 68-35 36h-1c-17.88-25.39-46.02-47.02-68-69-22.3-22.3-44.25-50.86-70-69v-1c25.75-18.14 47.7-46.705 70-69 21.98-21.978 50.12-43.615 68-69h1l34 35 66 66 26 26 11 9.654 9.83-6.615L2924 932l53-53 22.4-24 .6-28c-10.37 7.306-19.04 18.035-28 27l-51 51-20 20c-2.2 2.195-5.54 6.944-9 6.944-6.76 0-18.39-16.331-23-20.944l-62-62c-5.67-5.666-11.37-11.295-17-17-1.97-1.996-5.64-4.772-4.79-8 1.73-6.596 13.05-14.256 17.79-19l45-45 32-32c2.76-2.761 7.71-9.944 12-9.944 3.46 0 6.8 4.749 9 6.944l20 20 51 51c8.96 8.965 17.63 19.694 28 27V612c0-7.047 1.13-13.333-5-18z" fill="#028486"/><path d="M0 610v99c13.67-9.63 25.177-24.177 37-36 3.101-3.101 11.665-9.03 11.079-14-.6-5.075-8.682-10.603-12.079-14-11.506-11.506-22.696-25.628-36-35z" fill="#ebf3f9"/><path d="M2517 618v1h32l-32-1zm-1 1v34h34v-1h-33l-1-33m34 0v33h1l-1-33z" fill="#028486"/><path d="m1854 620 1 1-1-1m1 1 1 1-1-1m1 1 1 1-1-1m1 1 1 1-1-1m1 1 1 1-1-1m1 1 1 1-1-1m1 1 1 1-1-1m1 1 1 1-1-1m1 1 1 1-1-1m1 1 1 1-1-1m1 1 1 1-1-1m1 1 1 1-1-1m1 1 1 1-1-1m1 1 1 1-1-1m1 1 1 1-1-1m1 1 1 1-1-1m1 1 1 1-1-1m1 1 1 1-1-1M72 638c-16.845 16.845-34.151 33.151-51 50-6.094 6.094-17.37 13.792-20.397 22-2.94 7.975-.603 20.533-.603 29v54c0 7.366-1.96 18.048.603 25 3.273 8.876 15.793 17.396 22.397 24l19 18.999c2.023 2.008 4.83 5.794 8 5.794 3.492 0 6.658-4.51 9-6.623 7.922-7.151 15.45-14.621 23-22.17l64-64c9.351-9.354 24.439-21.075 30-33h-4c.027-2.616-.432-2.554-3-2-1.749-10.419-17.775-22.055-25.09-29.17-13.392-13.025-27.216-26.235-39.91-39.919-9.705-10.463-19.865-24.332-32-31.911m2 0 1 1-1-1m2 0 1 1-1-1m1796 0 1 1-1-1m1 1 1 1-1-1m1 1 1 1-1-1m1 1 1 1-1-1m1 1 1 1-1-1m1 1 1 1-1-1m1 1 1 1-1-1m1 1 1 1-1-1m1 1 1 1-1-1m1 1 1 1-1-1m1 1 1 1-1-1m1 1 1 1-1-1m1 1 1 1-1-1z" fill="#023342"/><path d="M2891 717.346c-8.12 2.024-18.15 16.805-24 22.654l-59 59-18 18c-2.01 2.023-5.79 4.83-5.79 8 0 6.898 16.11 18.323 20.79 23l62 62c6 5.998 11.94 12.061 18 17.995 2.02 1.981 4.76 5.466 8 4.659 8.12-2.024 18.15-16.804 24-22.654l60-60c4.81-4.81 23.82-18.649 22.25-26-1.75-8.201-16.44-18.193-22.25-24l-60-60c-6-5.998-11.94-12.061-18-17.995-2.02-1.981-4.76-5.466-8-4.659z" fill="#ebf3f9"/><path d="m2892 733-68 68c-4.84 4.84-21.79 16.891-21.79 24 0 7.109 16.95 19.16 21.79 24l68 68h1l68-68c4.84-4.84 21.79-16.891 21.79-24 0-7.109-16.95-19.16-21.79-24-21.98-21.978-43.61-50.118-69-68z" fill="#028486"/><path d="m1736 743-58 58c-4.96 4.961-19.23 14.8-20.08 22-.75 6.387 13.92 16.837 18.08 21 19.12 19.122 37.91 43.439 60 59v1l-30 29-29 30c21.72-15.304 40.19-39.195 59-58 14.39-14.395 33.17-28.693 44-46l-3-1 1-2c-9.99-5.828-18.35-16.45-26-24.961-9.95-11.073-20.9-21.237-31.34-31.839-4.08-4.146-17.71-13.798-16.81-20.201.54-3.9 5.55-7.398 8.15-9.999 6.58-6.579 21.8-16.938 24-26z" fill="#f79602"/><path d="m1778 856-1 2 3 1-3 4 40-39c-15.56-22.091-39.88-40.878-59-60-4.35-4.349-14.53-18.793-21-18.793-3.5 0-6.77 4.571-9 6.793-6.67 6.658-13.4 13.266-20 20-2.38 2.435-5.75 5.194-4.62 8.985 2.14 7.227 12.85 14.598 18.07 19.815 13.77 13.775 26.66 29.122 41.04 42.161 5 4.534 9.11 10.496 15.51 13.039z" fill="#e35e01"/><path d="m1978 744 1 1-1-1m1 1 1 1-1-1m1 1 1 1-1-1m1 1 1 1-1-1m1 1 1 1-1-1m1 1 1 1-1-1m1 1 1 1-1-1m1 1 1 1-1-1m1 1 1 1-1-1m1 1 1 1-1-1m1 1 1 1-1-1m1 1 1 1-1-1m1 1 1 1-1-1m1 1 1 1-1-1m1 1 1 1-1-1m1 1 1 1-1-1m1 1 1 1-1-1m1 1 1 1-1-1m1 1 1 1-1-1m1 1 1 1-1-1m1 1 1 1-1-1m1 1 1 1-1-1m1 1 1 1-1-1m1 1 1 1-1-1m1 1 1 1-1-1m1 1 1 1-1-1m11 0 1 1-1-1m-10 1 1 1-1-1m100 0 1 1-1-1m-99 1 1 1-1-1m1 1 1 1-1-1m6 0 1 1-1-1m-5 1 2 2v-2h-2m8 0 1 1-1-1m-6 2 2 2v-2h-2m5 0 1 1-1-1m95 0 1 1-1-1m-91 1 2 2-2-2m6 0v1h8l-8-1m24 0v1h8l-8-1m-37 1 1 1-1-1m11 0 1 1-1-1m-10 1 3 3-3-3m68 1v3h9l-9-3m10 0 3 3v-1l-3-2m28.67.333.66.334-.66-.334M2017 780l1 1-1-1m5 0 1 1-1-1m18 0v1h8l-8-1z" fill="#023342"/><path d="m2114 781 1 5 2-5h-3m-2 1 1 1-1-1m6 0-1 3h3l-2-3m-5 1 1 1-1-1m-84 1-1 1 2 3h1l-2-4z" fill="#028486"/><path d="m2097 786 1 3h1l-2-3z" fill="#023342"/><path d="m2116 786 2 2v-2h-2m3 0 1 1-1-1m4 0 4 5 1-3-5-2m-2 1 4 4-4-4m-3 1 3 3-3-3m3 3 1 1-1-1m1 1 1 1-1-1m112.33.667.34.666-.34-.666M2123 793l1 1-1-1m-92 1 1 1-1-1m4 0 1 1-1-1m3.33.667.34.666-.34-.666M2124 794l1 1-1-1m1 1 1 1-1-1m4 0 1 1-1-1m-3 1 1 1-1-1m1 1 1 1-1-1m3 0 1 1-1-1m-2 1 1 1-1-1m1 1 1 1-1-1m1 1 1 1-1-1m1 1 1 1-1-1m1 1 1 1-1-1m1 1 1 1-1-1m1 1 1 1-1-1m1 1 1 1-1-1m1 1 1 1-1-1m1 1 1 1-1-1m1 1 1 1-1-1m1 1 1 1-1-1m1 1 1 1-1-1m1 1 1 1-1-1m1 1 1 1-1-1m1 1 1 1-1-1m1 1 1 1-1-1m1 1 1 1-1-1m1 1 1 1-1-1m1 1 1 1-1-1m1 1 1 1-1-1M0 819l1 1-1-1m2149 0 1 1-1-1M1 820l1 1-1-1m2149 0 1 1-1-1M2 821l1 1-1-1m2149 0 1 1-1-1M3 822l1 1-1-1m2149 0 1 1-1-1M4 823l1 1-1-1m2149 0 1 1-1-1M5 824l1 1-1-1m1738 74c2.87-2.024 7.66-8.608 11.33-8.261 6.81.643 15.78 14.034 20.44 18.516 13.75 13.234 26.26 27.78 39.97 41.084 5.35 5.189 10.5 12.424 17.26 15.661l-5 8c25.75-18.141 47.7-46.703 70-69-15.56-22.091-39.88-40.878-59-60-4.35-4.349-14.53-18.793-21-18.793-6.25 0-15.82 13.61-20 17.793-17.54 17.536-39.73 34.739-54 55m411-74 1 1-1-1M6 825l1 1-1-1m2149 0 1 1-1-1z" fill="#028486"/><path d="m2753 825-92 92-46 47 14-14 40 .17 74-.166 73 1.996 41 1 22 .603L2892 964c-18.14-25.751-46.7-47.705-69-70-22.3-22.295-44.25-50.86-70-69z" fill="#e35e01"/><path d="m7 826 1 1-1-1m2149 0 1 1-1-1M8 827l1 1-1-1m2149 0 1 1-1-1M9 828l1 1-1-1m2149 0 1 1-1-1M10 829l1 1-1-1m2149 0 1 1-1-1M11 830l1 1-1-1m2149 0 1 1-1-1M12 831l1 1-1-1m2149 0 1 1-1-1M13 832l1 1-1-1m2149 0 1 1-1-1M14 833l1 1-1-1m2149 0 1 1-1-1M15 834l1 1-1-1m2149 0 1 1-1-1M16 835l1 1-1-1m2149 0 1 1-1-1M17 836l1 1-1-1m2149 0 1 1-1-1M18 837l1 1-1-1m2149 0 1 1-1-1M19 838l1 1-1-1m2149 0 1 1-1-1M20 839l1 1-1-1m2149 0 1 1-1-1M21 840l1 1-1-1m2149 0 1 1-1-1M22 841l1 1-1-1m2149 0 1 1-1-1M23 842l1 1-1-1m2149 0 1 1-1-1M24 843l1 1-1-1z" fill="#028486"/><path d="m2011 843-30 32 5-1 1-4 5 2-2-5 5-5 5 2-2-5 5-5 5 2-2-5 5-5 6 1-3-4h-3z" fill="#e35e01"/><path d="m2173 843 1 1-1-1M25 844l1 1-1-1m2149 0 1 1-1-1M26 845l1 1-1-1z" fill="#028486"/><path d="M2018 846v1h3l-3-1z" fill="#e35e01"/><path d="m2175 845 1 1-1-1M27 846l1 1-1-1m2149 0 1 1-1-1M28 847l1 1-1-1m2149 0 1 1-1-1M29 848l1 1-1-1m2149 0 1 1-1-1M30 849l1 1-1-1m2149 0 1 1-1-1M31 850l1 1-1-1m2149 0 1 1-1-1M32 851l1 1-1-1m2149 0 1 1-1-1M33 852l1 1-1-1m2149 0 1 1-1-1M34 853l1 1-1-1m2149 0 1 1-1-1M35 854l1 1-1-1m2149 0 1 1-1-1M36 855l1 1-1-1m2149 0 1 1-1-1M37 856l1 1-1-1m2149 0 1 1-1-1z" fill="#028486"/><path d="m2999 856-107 107v1l71 71 37 36V876l-1-20z" fill="#023342"/><path d="m38 857 1 1-1-1m2149 0 1 1-1-1M39 858l1 1-1-1m21 0 1 1-1-1m2128 0 1 1-1-1M40 859l1 1-1-1m19 0 1 1-1-1zm2130 0 1 1-1-1M41 860l1 1-1-1m17 0 1 1-1-1m2132 0 1 1-1-1M42 861l1 1-1-1m15 0 1 1-1-1m2134 0 1 1-1-1M43 862l1 1-1-1m13 0 1 1-1-1m2136 0 1 1-1-1M44 863l1 1-1-1m11 0 1 1-1-1m2138 0 1 1-1-1M45 864l1 1-1-1m9 0 1 1-1-1m2140 0 1 1-1-1M46 865l1 1-1-1m7 0 1 1-1-1m2142 0 1 1-1-1M47 866l1 1-1-1m5 0 1 1-1-1m2144 0 1 1-1-1M48 867l1 1-1-1m3 0 1 1-1-1zm2146 0 1 1-1-1M49.667 868.333l.666.334-.666-.334M2198 868l1 1-1-1m1 1 1 1-1-1z" fill="#028486"/><path d="M1976 875v3l1 1 5 1c-1.55 2.21-1.27 2.586 1 4l1-9-2 2h-1l-2-2 1 2h-1l-3-2z" fill="#e35e01"/><path d="m1977 877 1 1-1-1m5 0v3h1l-1-3z" fill="#f79602"/><path d="M1657 983v1l56 56c5.63 5.63 15.18 19.7 23 21.65 6.44 1.61 19.74-16.39 24-20.65l51-51c6.9-6.902 18.3-15.297 21-25-20.9-14.938-37.43-38.091-55.75-56.036-5.4-5.297-13.71-17.858-21.42-19.51-3.21-.688-5.76 2.584-7.83 4.512-6.06 5.648-12.14 11.17-18 17.034l-72 72z" fill="#023342"/><path d="m2220 890 1 1-1-1m-485 252v1l83 83 45 43c5.86-3.26 13.48-2 20-2h165c17.39 0 40.35 3.92 57-1v2l3-2 1 2v-3h2l-1 3 2-3h1v3c30.24-21.3 55.86-53.86 82-80l19-19c2.18-2.19 6.55-5.42 5.65-9-1.87-7.53-15.25-16.6-20.65-22-18.51-18.51-36.49-37.49-55-56-7.15-7.15-21.24-16.45-22-27l10-4v2l11-4v-1l-5-2-5 4 6-4c.32-8.9-12.17-17.17-18-23l-56-56-56-56c-4.77-4.769-14.06-18.26-21-19.079-5.62-.663-13.43 10.509-17 14.079l-47 47-189 189m486-251 1 1-1-1m1 1 1 1-1-1m1 1 1 1-1-1m1 1 1 1-1-1m1 1 1 1-1-1m1 1 1 1-1-1m1 1 1 1-1-1m1 1 1 1-1-1m1 1 1 1-1-1m1 1 1 1-1-1m1 1 1 1-1-1m1 1 1 1-1-1m1 1 1 1-1-1m1 1 1 1-1-1m1 1 1 1-1-1m1 1 1 1-1-1m1 1 1 1-1-1m1 1 1 1-1-1m1 1 1 1-1-1z" fill="#028486"/><path d="M211 927c-3.9 3.9-15.793 12.162-15.793 18 0 5.838 11.893 14.1 15.793 18h1c3.694-6.922 5.123-30.417-1-36z" fill="#f79602"/><path d="m213 930 1 30c3.917-2.76 13.793-9.709 13.793-15 0-5.456-10.388-12.946-14.793-15z" fill="#e35e01"/><path d="m223 938 1 1-1-1m1 1 1 1-1-1m1 1 1 1-1-1m1 1 1 1-1-1m1 1 1 1-1-1m1 1 1 1-1-1m1.333 1.667.334.666-.334-.666M2638 945l1 1-1-1m-2410 1 1 1-1-1m2407 0v3l-3-2 1 4 7-4-5-1m238 0 1 1-1-1m-2646 1 1 1-1-1m-1 1 1 1-1-1z" fill="#f79602"/><path d="M2672 948v1h56l-18-1h-38m203 0v3l-3-2v3h7l-4-4m-2650 1 1 1-1-1m2405.67.333.66.334-.66-.334M2760 949v1h8l-8-1m-2536 1 1 1-1-1m2405 0-11.79 14 8.79 11 25 25 102 102c20.26-14.27 37.46-36.46 55-54l63-63c4.01-4.015 20.19-15.843 18.65-22-1.08-4.35-7.39-9.19-11.65-9.852-16.42-2.553-35.35-1.148-52-1.148-44.62 0-88.42-1-133-1-13.38 0-26.63-1.313-40-.985-7.98.195-16.21 2.328-24-.015z" fill="#f79602"/><path d="m2558 973-9 10 9-9h1l21 21-22-22z" fill="#e35e01"/><path d="m2558 974-9 9v1c82.99 77.08 160.86 160.86 241 241l69 69c8.82 8.82 19.74 24.89 31 30.25 4.04 1.92 7.47-2.74 10-5.25l21-21 54-54c7.34-7.34 19.31-15.67 23.97-25 2.56-5.11 1.03-13.4 1.03-19-22.46 15.82-41.56 40.56-61 60-14.72 14.72-34.61 29.57-46 47h-1c-14.01-19.89-35.78-36.78-53-54l-105-105c-40.86-40.86-81.15-82.41-122.83-122.42-17.3-16.61-33.59-37.786-53.17-51.58z" fill="#f79602"/><path d="m1689 1016 1 1-1-1m1 1 1 1-1-1m1 1 1 1-1-1m1 1 1 1-1-1m862 0 1 1-1-1m3 0 2 2-2-2m-864 1 1 1-1-1m1 1 1 1-1-1m862 0 1 1-1-1m5 0-1 2 1-2m-866 1 1 1-1-1m863 0-1 2 1-2m4 0v3l-11.28 9.81L2523 1063v1h2v2l-3-2c6.29 13.49 23.5 25.5 34 36l76 76 175 175 56 56c9.6 9.6 18.9 21.18 30 29l27-28 51-51 27.97-29 1.03-32v-77c-9.34 4.67-18.38 17.38-26 25l-55 55-20 20c-1.11 1.11-5.59 7-7 7-1.82 0-7.57-7.57-9-9l-25-25-100-100-28-28c-3.5-3.5-9.89-11.56-11-6l-9-1 2 2v1c-3.92 0-8.78 1.12-8-2-10.85-.17-25.65-21.65-33-29-24.27-24.27-48.4-48.68-73.12-72.47-7.43-7.16-18.78-23.81-28.88-25.53-.58-3.36-1.64-4.42-5-5l-1-1-1-3m-866 1 1 1-1-1m859 0 1 1-1-1m-858 1 1 1-1-1m867 0 1 1-1-1z" fill="#028486"/><path d="M2561 1027v2l3-1v-1h-3z" fill="#023342"/><path d="m1701 1028 1 1-1-1m1 1 1 1-1-1m1 1 1 1-1-1m1 1 1 1-1-1m1 1 1 1-1-1m1 1 1 1-1-1m1 1 1 1-1-1m1 1 1 1-1-1m1 1 1 1-1-1m1 1 1 1-1-1m1 1 1 1-1-1m1 1 1 1-1-1m1 1 1 1-1-1m1 1 1 1-1-1m1 1 1 1-1-1m1 1 1 1-1-1m1 1 1 1-1-1m423 0v2h2l-2-2m-422 1 1 1-1-1m1 1 1 1-1-1m1 1 1 1-1-1m1 1 1 1-1-1m423 0 1 1-1-1m-422 1 1 1-1-1m1 1 1 1-1-1m1 1 1 1-1-1m1 1 1 1-1-1m1 1 1 1-1-1zm405 0-3 2v1l4-2-1-1m-404 1 1 1-1-1m1 1 1 1-1-1zm1 1 1 1-1-1m396 2h3l-1-2-2 2m-395-1 1 1-1-1z" fill="#028486"/><path d="m2418 1068-423 423c-38.17 38.17-75.95 76.76-114 115l-31 31c-3.37 3.37-10.46 8.2-11.65 13-.9 3.58 3.47 6.81 5.65 9l21 21 87 87 166 166 47 47c5.84 5.84 13.13 16.49 21 19.4 12.82 4.72 34.32.6 48 .6h110c-7.05-10-17.35-18.35-26-27l-49-49-152-152-50-50c-8.66-8.66-17.09-17.89-30-11v-4l3 1-1-3-4 5v-3h-4l1 2-3-1 2-3-3 2c-5.87-11-21.79-24.81-32-32v-1c3.25-2.27 11-7.19 9.67-12-1.25-4.51-9.68-7.69-7.03-13 2.43-4.89 8.53-9.17 12.36-13l27-27 115-115c18.49-18.49 41.95-36.64 57-58-4.99 3.52-12.58 15.62-19 14l2 2v1l-4 4h-1l-3-1v1h3v1l-7 1 1-2h-1c-14.53 4.5-34.77 1-50 1-33.39 0-67.71 2.29-101 0 33.34-28.37 63.01-63.01 94-94l191-191 75-75c7.46-7.46 25.52-19.77 28-30z" fill="#e35e01"/><path d="M2030 1458c33.03 3.63 68.69 0 102 0 15.12 0 35.66 3.61 50-1l-1 2h1l6-1v-1h-3v-1l2-1 1 2h1l4-4v-1l-2-2 2 2 49-47 82-82 63-63 32-33h1c15.3 21.72 39.19 40.19 58 59l119 119c17.6 17.6 38.25 33.76 54 53h158c-10.08-13.04-23.34-24.34-35-36l-66-66c-63.84-63.84-127.15-128.15-191-192l-71-71-18-18c-2.02-2.01-4.83-5.79-8-5.79s-5.98 3.78-8 5.79l-18 18-72 72-192 192c-33.2 33.2-69.81 65.05-100 101z" fill="#f79602"/><path d="M1425 1103.18c-4.15 1.43-14.79 12.07-13.66 16.82 1.09 4.57 11.48 16.61 16.66 14.82 4.06-1.39 14.79-11.29 14.79-15.82 0-4.73-12.95-17.49-17.79-15.82z" fill="#023342"/><path d="M1550 1110c9.69 2.21 19.1 16.1 26 23 2.43 2.43 6.86 5.54 7.79 9 .79 2.9-2.3 5.81-3.79 8 14.02-10-11.96-26.96-20-35-2.94-2.94-8.27-10.64-13-10.08-3.53.42-6.67 4.75-9 7.08l-21 21c-2.42 2.42-7.79 6.19-7.79 10 0 5.81 11.94 14.15 15.79 18 3.67 3.67 18.22 22.5 23.66 19.25 3.97-2.38 3.67-8.34 3.47-12.25-.51-9.96-.13-20.02-.13-30 0-8.23 2.49-20.99-2-28z" fill="#f79602"/><path d="m1550 1108 1 1-1-1m0 2 2 22v45c8.9-6.27 16.31-15.31 24-23 2.67-2.67 7.7-6.17 8.65-10 .97-3.89-4.29-7.64-6.65-10-6.37-6.39-18.66-24.14-28-24z" fill="#e35e01"/><path d="M2922 1122v34h-33v33h33v-33h34v-34h-34z" fill="#ebf3f9"/><path d="m2715 1150 1 1-1-1m1 1 1 1-1-1m1 1v2h2l-2-2z" fill="#028486"/><path d="M2745 1157v1l3 1-3-2m5 0-2 5 6-1v-1h-3l1-2-2-1m173 1 1 1-1-1m-210 1 1 1-1-1m2 0 1 1-1-1m2 0 1 1-1-1m236 0 1 1-1-1zm-196.33 1.33.66.34-.66-.34m2.33-.33 1 1-1-1m1 3-4-1 1 4h-1v-3l-5-1-1 1 101 103 28 28 12 10.65 10-6.65 25-25 52-52 21.4-23 .6-35h-53c-5.06 0-15.49-2.01-19 2h-1v-4h-1l-1 3-1-2h-1v28h-34v33h-34v-34h33v-26c-32.07 0-64.01-2-96-2-7.03 0-27.31-3.36-32 2z" fill="#023342"/><path d="M2855 1189v33h34v-33h-34z" fill="#ebf3f9"/><path d="m2776 1190 1 1-1-1m-1092 1-146 146-47 47-25 26c20.26-14.27 37.46-36.46 55-54l107-107 40-40c4.8-4.8 14.38-11.32 16-18m1093 0 1 1-1-1z" fill="#028486"/><path d="M1466 1410v1l15 15h1l151-151 38-38 14-11.94 12 9.94 31 31 121 121 28 28 12 9.08 15-13.08c-14.53-20.63-37.15-38.15-55-56l-109-109-40-40c-3.34-3.34-9.88-12.79-15-12.79-5.12 0-11.66 9.45-15 12.79l-41 41-163 163z" fill="#023342"/><path d="M2855 1222v1h34l-34-1z" fill="#028486"/><path d="m1726 1620-29 28-12 9.94-13-10.94-33-33-101-101-29-29-15-17 50 3v3h26l-1-4 2 2h2l2-6h5l1-9h1l4 5 2-10h7v-1l-3-1 5-1 3-5c-.48-2.89 1.94-13.76 5-13l1-4 3-1 3 2 1-1-2-2 6-6v-10l5 5h1l5-12v-5l8-1-1-13 7 1v-5h-34v-34h34v31l4-2 2-4v4h1c.83-5.55 4.9-16.33 11-17l8-23 5-6 2-10 8-4-1-6h1l2 1v120c0 18.61-3.31 40.88 1 59l10-1v1l-9 3 17 1v-1l-16-1v-1l32 1v1h-8v1l56 3v3h26v1h-2v1l49.91 2.99L1861 1485l43-43c-14.53-20.63-37.15-38.15-55-56l-109-109-40-40c-3.34-3.34-9.88-12.79-15-12.79-4.63 0-10.01 7.8-13 10.79l-31 31-127 127-36 36c-2.97 2.97-11.86 9.15-10.65 14 1.27 5.11 9.05 10.4 12.65 14l33 33 121 121 35 35c3.83 3.83 9.58 12.3 15 13.65 4.42 1.11 9.32-5.97 12-8.65 9.92-9.92 21.92-19.53 30-31z" fill="#f79602"/><path d="m2419 1227-205 205-66 66-34 35 3-1 2 3v-1l-2-1c13.31-9.93 39.28-5 56-5 6.35 0 15.27-1.83 20 3l-25-1h-48v3c24.15 0 51.25 3.41 75-1l-2 3c20.95-15.01 38.77-37.77 57-56l112-112 42-42c3.28-3.28 10.86-14.04 16-13.37 4.66.61 9.86 8.23 13 11.37l33 33 127 127 35 35c4.47 4.47 9.31 11.72 16 12l-1 3 3-1-1 2h1l1-4h1v3h57c5.88 0 15.79-2.33 20 2h1c-5.31-11.39-19.16-21.16-28-30l-63-63-144-144c-22.93-22.93-45.52-52.34-72-71z" fill="#028486"/><path d="M1858 1264v1l6 1v-1l-6-1m246 0 1 1-1-1z" fill="#023342"/><path d="m2109 1268-1 5 5-5h-4z" fill="#028486"/><path d="m2658 1306 1 1-1-1m234 0 1 1-1-1m-1210 1 1 6-8 4-2 10c-6.29 1.44-10.56 22.71-13 29-6.31-.64-10.59 11.57-11 17h-1v-4l-2 4-4 2-2 4 2 3v1l-7-1 1 13-8 1v5c-4.65 1.36-4.3 7.76-5 12h-1l-5-5v10l-6 6 2 2-1 1-3-2-3 1-1 4c-4.2.58-5.38 9.24-5 13-3.05.65-2.94 2.01-3 5l-5 1 3 1v1h-7l-2 10-4-5h-1l-1 9h-5l-2 6h-2l-2-2 1 4h-26v-3l-50-3c1.86 6.62 8.27 11.27 13 16l28 28 105 105 33 33c2.82 2.82 8.36 10.81 13 9.65 4.8-1.19 9.63-8.28 13-11.65l29-29 74-74c13.28-13.28 28.64-26.03 40-41l-14.91-1.3-35.09-2.7v-1h2v-1h-26v-3l-56-3v-1h8v-1l-32-1v1l16 1v1l-17-1 9-3v-1l-10 1-1-61v-118l-3-1z" fill="#e35e01"/><path d="M2080 1650c4.84 0 11.56 1.19 16-1.03 7.54-3.77 14.08-13.05 20-18.97l41-41c62.49-62.49 125.5-124.5 188-187l55-55c4.12-4.12 13.88-17.94 20-17.94 6.12 0 15.88 13.82 20 17.94l55 55 187 187 41 41c5.92 5.92 12.46 15.2 20 18.97 4.44 2.22 11.16 1.03 16 1.03-8.08-11.47-20.08-21.08-30-31l-57-57c-56.81-56.81-113.17-114.17-170-171l-61-61c-4.31-4.31-15.43-19.85-22-19.08-7.71.91-18.66 16.74-24 22.08l-62 62c-55.83 55.83-111.19 112.19-167 168l-56 56c-9.92 9.92-21.92 19.53-30 31z" fill="#ebf3f9"/><path d="m2216 1533 7-3c2.3 5.17 12.97 3 18 3h355c4.76 0 18.84 2.43 20-3h1l3 1 1 1-1 3 2-3c12.91 6.7 23.76 21.76 34 32l57 57c9.92 9.92 19.53 21.92 31 30-7.31-10.37-18.04-19.04-27-28l-51-51-160-160-61-61c-5.85-5.85-15.88-20.63-24-22.65-4.85-1.21-11.03 7.68-14 10.65l-35 35-113 113-30 30c-4.69 4.69-11.2 9.38-13 16z" fill="#028486"/><path d="m2999 1328-78 78-20 20-7.08 9 6.08 9 19 19 52 52 29 28v-195l-1-20zm-1391 16v34h34v-34h-34zm-33 33v34h-34v33h34v-33h33c0-7.67-.07-15.33 0-23 .03-2.47 1.19-7.07-.83-8.99-5.34-5.08-25.13-2.01-32.17-2.01z" fill="#ebf3f9"/><path d="m1631 1397-2 4h4l-2-4m260 0 1 1-1-1zm-263.67 5.67.34.66-.34-.66M1896 1402l1 1-1-1z" fill="#f79602"/><path d="m2764 1412 1 1-1-1m-1150 1-1 3h1v-3m1151 0 1 1-1-1m1 1 1 1-1-1zm-124 35 1 1-1-1m159 0v2h2l-2-2zm-615 1-2 1 1 3h1v-4m2.33.67.34.66-.34-.66M2643 1450l2 2v-2h-2m6 0 1 1-1-1m3.67.33.66.34-.66-.34zm150.33.67v2h2l-2-2zm-763.67 1.67.34.66-.34-.66M2645 1452l1 1-1-1m2.67.33.66.34-.66-.34m4.33-.33 1 1-1-1m2 0v2l2-2h-2m147 0 2 3-2-3zm-612 1 1 1-1-1m457 0 1 1-1-1m4 0 1 1-1-1m155 0v2h2l-2-2zm-154 2v2l2-2h-2m153 0 1 1-1-1m3 0 1 1-1-1zm-157 2 1 1-1-1m1 1c13.76 19.53 35.1 36.1 52 53l105 105c9.49 9.49 26.38 21 32.36 33 2.46 4.92-4.8 8.19-6.61 12-2.36 4.97 5.57 10.81 9.25 13l-36 35 2-3v-1l-3 1c.77 3.85-3.88 4.51-3 1l-14 3 3-4v-1c-12.85 6.4-22.97 19.97-33 30l-62 62-135 135c-21.66 21.66-49.38 42.98-67 68h110c13.68 0 35.18 4.12 48-.6 7.87-2.91 15.16-13.56 21-19.4l45-45 160-160 88-88 23-23c3.32-3.32 8.66-7.15 9.66-12 1.66-8.01-11.73-17.07-16.66-22l-57-57-81-81-23-23c-3.45-3.45-7.33-8.9-12-10.69-4.14-1.58-10.58-.31-15-.31h-33c-36.44 0-74.87-3.48-111 0zm-1162 6v1l4 3 3-3-7-1z" fill="#e35e01"/><path d="m1511 1471 1 1-1-1m9 0v1h8l-8-1z" fill="#f79602"/><path d="M1548 1471v1h4l-4-1z" fill="#e35e01"/><path d="M1560 1474v2l2-2h-2z" fill="#f79602"/><path d="M1772 1495v1h4l-4-1z" fill="#e35e01"/><path d="M1784 1497c.61 2.85 1.3 2.85 4 2l-4-2zm8.67 4.33.66.34-.66-.34m15.33-.33v2h8v-2h-8zm25 4v1l2-1v4h1v-3l1-1 2 1-6-1m7-1 1 1-1-1z" fill="#f79602"/><path d="M2647 1528v1c23.2 6.86 50.39-3.62 74 2-3.85-5.4-13.07-3-19-3h-55z" fill="#023342"/><path d="M2119 1534v1l-2-3-4 1 2 1v1c-12.29 2.48-24.38 20.38-33 29l-56 56c-8.78 8.78-20.77 17.65-27.62 28-4.35 6.56 6.24 9.15 6.65 14.99.29 4.13-6.42 8.45-9.03 11.01v1l32 32 3-2-2 3 3 1-1-2h4v3l4-5 1 3-3-1v4c14.32-6.07 21.45 3.45 31 13l51 51 164 164 44 44c5.11 5.11 11.75 14.86 19 16.68 10.46 2.62 24.22.32 35 .32h74c10.73 0 30.36 3.79 40-1.03 9.33-4.66 17.66-16.63 25-23.97l54-54 142-142c24.38-24.38 47.99-53.86 76-74v1l-3 4 14-3c.63 4.48 4.17-.73 6-2v1l-2 3c12.62-6.44 27.89-23.49 36-35-2.84-2.47-9.92-7.71-8.79-12 1.35-5.16 10.48-7.86 6.41-14-6.61-9.98-18.15-18.53-26.62-27l-56-56c-7-7-19.98-25.87-30-27l-3-3c-2.88-5.04-12.61-2-18-2h-44c-4.9 0-12.04 1.56-15-3h-1l-2 4v1l116 116c-4.89 0-11.36 1.11-16-.6-10.53-3.89-21.13-19.53-29-27.4l-64-64c-8.44-8.44-18.52-23.1-30-27l-2 3 1-3-1-1-3-1h-1c-3.55 5.47-16.07 3-22 3h-350c-6.53 0-16.13 1.97-21-3l-7 3 1-2c-11.44 5.62-21.07 19.07-30 28l-61 61c-8.63 8.63-20.47 26.15-32 30.4-4.64 1.71-11.11.6-16 .6l78-78c12.7-12.7 29.77-25.49 39-41l-75 1v-3c22.88 0 50.75-4.3 73 1-.86-5.15-13.06-3-18-3h-40c-3.11 0-12.52-1.65-15 0-2.61 1.74-2.83 5.63-1 6m74-6 1 1-1-1m3 0v2h2l-2-2m3 0 1 1-1-1m20 0v1h4v-1h-4m5 0v2h392v-2h-392m393.33.67.34.66-.34-.66m27.34-.34.66.34-.66-.34z" fill="#023342"/><path d="M2642 1530v2l2-2h-2z" fill="#023342"/><path d="m1850 1532 1 1-1-1m364 0 1 1-1-1m7 0-1 1 3 2-2-3z" fill="#028486"/><path d="M2644 1532v2l2-2h-2z" fill="#023342"/><path d="m1849 1533 1 1-1-1m872 0 2 2-2-2m-873 1 1 1-1-1m264 0v1h3l-3-1m100 0 1 1-1-1m3 0 1 1-1-1m2 0 1 1-1-1m401 0 1 1-1-1m6 0 1 1-1-1m23 0 1 1-1-1m-800 1 1 1-1-1m264 0 1 1-1-1m-265 1 1 1-1-1m882.33.67.34.66-.34-.66M1845 1537l1 1-1-1m342 0 1 1-1-1m3 0 1 1-1-1m-346 1 1 1-1-1m369 0 1 1-1-1m517 0 1 1-1-1m-887 1 1 1-1-1m-1 1 1 1-1-1m-1 1 1 1-1-1m-1 1 1 1-1-1m-1 1 1 1-1-1m-1 1 1 1-1-1zm-497 4.18c-10.14 3.49-21.45 20.26-29 27.82-2.42 2.42-7.79 6.19-7.79 10 0 3.5 4.57 6.77 6.79 9l22 22c2.36 2.36 6.11 7.62 10 6.65 3.48-.86 6.58-5.23 9-7.65l21-21c2.41-2.41 7.54-6.1 7.08-10-.42-3.53-4.75-6.67-7.08-9l-21-21c-2.62-2.61-6.68-8.31-11-6.82m496-1.18 1 1-1-1z" fill="#028486"/><path d="m2999 1550-48 48v1l49 48v-67l-1-30z" fill="#ebf3f9"/><path d="M1320 1601v-30c-17.06 7.96-17.06 22.04 0 30z" fill="#023342"/><path d="m1836 1650 1 1-1-1m243 0v1h16l-16-1zm665 0v1h16l-16-1m255 4-232 232-75 75-38 39c11.1-7.82 20.4-19.4 30-29l55-55 171-171 65-65c6.58-6.58 21.8-16.94 24-26z" fill="#f79602"/><path d="m2999 1655-232 232-74 74-38 39h134c-6.53-9.27-15.99-16.98-24-25-2.32-2.32-7.8-6.16-6.79-10 .99-3.79 6.13-7.34 8.79-10l24-24 88-88 26-26c2.58-2.58 6.97-8.94 11-8.94 6.76 0 18.39 16.33 23 20.94 19.44 19.44 38.54 44.18 61 60v-212l-1-22z" fill="#ebf3f9"/><path d="m149 1671-37 38 27-26 10-12z" fill="#f79602"/><path d="m150 1671-26 26-10.654 12 6.654 10 22 22 10 6.65 12-10.65 26-26v-1l-40-39z" fill="#023342"/><path d="m2801 1704-1 2h2l-1-2z" fill="#e35e01"/><path d="m188 1708 1 1-1-1m-76.667 1.67.334.66-.334-.66M189 1709l1 1-1-1z" fill="#028486"/><path d="m2032 1709 5 3v-1l-5-2m755 0-2 1v1l2-2m13 0-1 4 3-4h-2m6 0-3 1-1 4 4-5m-757 1 2 2-2-2m3 0 1 1-1-1m738 0v2l2-2h-2z" fill="#023342"/><path d="M1345 1732v1c3.9 3.9 12.16 15.79 18 15.79 5.87 0 14.89-12.37 18-16.79l-16 15v-29l10 9c-2.38-3.37-7.36-10.79-12-10.79-5.84 0-14.1 11.89-18 15.79z" fill="#f79602"/><path d="M1365 1718v29c3.91-2.75 13.79-9.71 13.79-14.99 0-4.78-10.22-11.49-13.79-14.01z" fill="#e35e01"/><path d="m1760 1726-184 184-59 59-30 31c25.02-17.62 46.34-45.34 68-67l134-134 51-51c5.69-5.69 18.09-14.12 20-22z" fill="#f79602"/><path d="m1761 1726-183 183-59 59-31 32h74c8.29 0 22.5 2.72 30-1.03 8.61-4.3 16.23-15.2 23-21.97l47-47 73-73 18-18c2-1.99 4.86-5.94 8-5.94 4.29 0 9.24 7.18 12 9.94l32 32 82 82c13.22 13.22 26.04 29.47 41 40.68 6.89 5.17 21.72 2.32 30 2.32h77l-46-47-91-91-90-90-47-46z" fill="#023342"/><path d="m1785 1749 1 1-1-1m1 1 1 1-1-1m1 1 1 1-1-1m1 1 1 1-1-1m1 1 1 1-1-1m1 1 1 1-1-1m1 1 1 1-1-1m1 1 1 1-1-1m1 1 1 1-1-1m1 1 1 1-1-1m1 1 1 1-1-1m1 1 1 1-1-1m-1733 1c-3.9 3.9-15.793 12.16-15.793 18 0 5.87 12.371 14.89 16.793 18l2-32 8 7-11-11m1734 0 1 1-1-1m1 1 1 1-1-1m1 1 1 1-1-1z" fill="#f79602"/><path d="m66 1765-1 30c4.088-2.88 14.793-10.51 14.793-16 0-5.09-10.049-11.37-13.793-14z" fill="#e35e01"/><path d="m2915 1806-59 59c-4.35 4.35-18.79 14.53-18.79 21 0 4.37 6.99 9.2 9.79 12l28 28 52 52c6.35 6.35 14.46 18.25 23 21.4 13.34 4.91 35.76.6 50 .6v-76c0-9.57 2.71-24-.6-33-3.4-9.21-16.54-18.14-23.4-25-19.44-19.44-38.54-44.18-61-60z" fill="#023342"/><path d="m1760 1831-112 112c-18.17 18.17-41.21 36.01-56 57l42-41 82-82 32-32 12-14z" fill="#028486"/><path d="m1761 1831-112 112c-18.17 18.17-41.21 36.01-56 57l16-.6 13-11.4 24-24 76-76 39-40h1l39 40 76 76 24 24 13 11.4 16 .6-29-30-55-55-55-55-30-29zm789 10v34h-33c0 6.78 3.35 26.45-1.6 31.4-5.06 5.05-25.45 1.6-32.4 1.6v33h34v-33h33v-33h24c2.62 0 7.11.75 8.97-1.6 4.5-5.68 1.03-25.2 1.03-32.4h-34z" fill="#ebf3f9"/><path d="m675 1844-59 59c-4.349 4.35-18.793 14.53-18.793 21 0 6.25 13.61 15.82 17.793 20 18.171 18.17 36.007 41.21 57 56-14.272-20.26-36.464-37.46-54-55-4.287-4.29-18.944-14.66-18.944-21 0-6.12 13.821-15.88 17.944-20l42-42c4.799-4.8 14.381-11.32 16-18z" fill="#028486"/><path d="m676 1844-56 56c-5.627 5.63-19.704 15.18-21.654 23-.894 3.58 3.476 6.81 5.655 9L624 1952l32 32c4.773 4.77 9.899 11.92 16 14.97 7.77 3.89 32.422 3 40.83.71 6.213-1.69 13.379-11.61 17.831-16.13 12.834-13.03 26.132-29.46 41.339-39.55-1.616-10.29-16.781-21.77-24-29l-46-46c-8.329-8.33-16.363-18.21-26-25z" fill="#023342"/><path d="m836 1844-52 52-28 27c8.597 12.2 21.447 22.45 32 33 2.834 2.83 7.595 9.74 12 9.8 6.215.07 15.109-12.63 19.29-16.76 13.544-13.39 27.212-26.62 40.76-39.99 6.019-5.93 14.098-11.4 17.95-19.05l10 6-26-27-26-25m1044 0 1 1-1-1z" fill="#f79602"/><path d="m2957 1847 1 1-1-1m-1196 1-101 101-50 51 27-26 49-49 49-49 26-27h1c10.88 15.45 29.55 34.12 45 45-11.11-15.77-30.23-34.89-46-46m123 0 1 1-1-1m1074 0 1 1-1-1z" fill="#028486"/><path d="m1761 1849-100 100-50 51h302c-7.82-11.1-19.4-20.4-29-30-18.84-18.84-37.71-37.63-56.84-56.14-21.57-20.86-41.7-47.63-66.16-64.86z" fill="#023342"/><path d="M2516 1874v33h1v-32h33l-34-1zm468 0 1 1-1-1m-1073 1 1 1-1-1m639 0v33h1l-1-33z" fill="#028486"/><path d="m2835 1886-56 56c-6.06 6.06-19.75 15.2-23 23-1.15 2.76 5.25 7.25 7 9 7.09 7.09 14.3 15.23 22 21 2.68 2.01 4.87 6.72 9 5 6.91-2.88 11.88-12.99 18-18 7.19-5.89 12.56-13.92 20-20 4.81-3.93 12.06-9.18 16-14 3.61-4.41 16.96-20.76 20-20v-3c7.22-.82-1.71-8.71-4-11-9.19-9.21-18.22-20.73-29-28zm-1957 4-33.251 32.96L800 1967c6.78 9.62 16.653 17.71 25 26 3.702 3.68 7.306 7.63 13 6.85 5.775-.79 10.136-6.99 14-10.85l31-31 24-24c2.424-2.42 7.793-6.19 7.793-10 0-3.81-5.369-7.58-7.793-10-7.648-7.65-17.779-22.14-29-24z" fill="#e35e01"/><path d="m1820 1907 1 1-1-1m123 0 1 1-1-1m540 0v1h33l-33-1m-662 1 1 1-1-1z" fill="#028486"/><path d="m2870 1923-1 2 1-2m2 0-4 2-1 1 1 2c-7.88 1.65-15.75 14.15-21.29 19.83-16.69 17.13-34.3 35.95-52.71 51.17v1h63c7.31 0 19.37 2.29 26-1.03 12.18-6.09 23.38-22.35 33-31.97v-1l-44-43z" fill="#f79602"/><path d="m756 1924 1 1-1-1m1081 0 1 1-1-1m123 0 1 1-1-1m-1203 1 1 1-1-1m1204 0 1 1-1-1m-1203 1 1 1-1-1m1204 0 1 1-1-1m-1203 1 1 1-1-1m1204 0 1 1-1-1m-1203 1 1 1-1-1m1204 0 1 1-1-1m-1203 1 1 1-1-1m1204 0 1 1-1-1m-1203 1 1 1-1-1m1081 0 1 1-1-1m123 0 1 1-1-1m-1203 1 1 1-1-1m1204 0 1 1-1-1m-1203 1 1 1-1-1m1204 0 1 1-1-1m-1203 1 1 1-1-1m1204 0 1 1-1-1m-1203 1 1 1-1-1m1204 0 1 1-1-1m-1203 1 1 1-1-1m1204 0 1 1-1-1m-1203 1 1 1-1-1m1204 0 1 1-1-1m-1203 1 1 1-1-1m1204 0 1 1-1-1m-1203 1 1 1-1-1m1204 0 1 1-1-1m-1203 1 1 1-1-1m1204 0 1 1-1-1m-1531 24-8-6c3.115 4.42 12.128 16.79 18 16.79 5.838 0 14.1-11.89 18-15.79-3.426-4.86-11.009-15.16-17-16.65-10.223-2.55-12.499 15.42-11 21.65m328-23v4c-7.625 3.41-13.242 11.1-19.075 16.93-11.514 11.49-30.903 24.32-37.925 39.07h117l-29-30-31-30m1204 0 1 1-1-1m1 1 1 1-1-1m506 0v1h34l-34-1m-505 1 1 1-1-1m1 1 1 1-1-1m1 1 1 1-1-1m1 1 1 1-1-1m1 1 1 1-1-1m1 1 1 1-1-1m1 1 1 1-1-1m1 1 1 1-1-1z" fill="#028486"/><path d="M442 1951c-4.659 5.1-4.599 8.88 2 12l-2-12z" fill="#023342"/><path d="M2883 2000h66l-23-24-10-7.79-10 7.79-23 24z" fill="#ebf3f9"/></svg>