<svg xmlns="http://www.w3.org/2000/svg" viewBox="0 0 3000 2000"><path d="M0 0v329l.603 33L16 379l35 35 126 126 43 43 13.221 15.41-8.405 9.683-26.491 26.393L103 729c7.762 16.645 30.013 32.013 43 45l99 99 334 334c39.666 39.67 79.246 79.42 119 119 9.739 9.69 19.552 19.34 29.449 28.88 2.555 2.46 9.618 7.23 9.51 11.16-.152 5.55-11.262 13.26-14.959 16.96l-46 46-182 182v1l19.999 19.39L527 1635v-4l7-1v1h-2v1c4.851 0 11.375 1.13 15.961-.6 10.299-3.9 15.599-9.83 28.039-7.4l17-2c-2.203-9.98 12.793-6.89 18.816-8.28 4.697-1.08 6.796-6.39 11.277-8.02 8.243-2.99 23.311-2.8 31.907-2.7l-1-4h6v-1h-4v-1c9.941-3.81 34.478 3.35 37-11h11l3 3v1l-6 1v1c4.631-.14 7.122-1.34 10-5l-5 1v-1c8.063-1.92 16.944-.29 24.911-2.42 5.502-1.47 8.277-7.53 14.089-8.43 11.701-1.82 24.174 2.74 35-3.15v-1h-4v-1l38-5-3-3v-1l5 3 5-5h-9v-1h12v-1h-9v-1c15.525 0 27.812.49 42-5l-1-3 29.961-2.22 11.04-6.46 22.995-.64 12.008-8.12L960 1530l-151 152-51 51-27 28h165c4.824 0 11.571 1.19 16-1.03 8.613-4.3 16.23-15.2 23-21.97l47-47 159-159 353-353 113-113c18.49-18.49 41.95-36.64 57-58h1l26 27 28 26-1-3 2 1c0-3.09 3.54-2.45 6-4 7.46-4.71 17.12-3 26-3v2l-24 1v1l3 1-11 5v1h32v1h-5v1h5v1h-8v1l16-3v-1h-8c2.15-3.48 3.74-5.83 8-6 1.81-2.28 2.59-1.5 5 0l-7 4h5l1 5 4-1v-1l-3-2c3.85.7 6.54 1.4 9-2 2.66.49 9.92-.22 6-4v-1l12 1-3 6 16-3-12 4v1c8.28.17 25.1 7.86 31 0l-16-2v-2l24 2v-4l24 5v1l-8 4 19 7v-1l-7-2c12.22-13.86 33 3.54 47 8l-1-3 6-1 6-2v6l10 4 9 8v-3l5-1v1l-2 3c10.58-4.17 15.91-5.17 24 4h-4c3.05 18.52 23.83 2.89 32 11l-5-1c2.38 3.78 21.92 16.85 24 14l2 1 1-4c15.27 4.14 25.36 22.44 39 30v2l-4.27 5.81 9.78 10.65 15.9 16.97L2084 1193l-4.01 8 8.01 15h4l13 21 5-5-3 1-2-5-3 1-2-12c2.6 1.2 3.61 2.25 4-1h1c.88 4.21 2.84 6.75 7 8v7c27.65-19.48 51.12-49.12 75-73 6-6 12.06-11.94 18-18 1.99-2.03 5.46-4.78 5.08-8-.46-3.87-5.53-7.44-8.08-10l-22-22c-29.07-28.94-57.99-57.99-87-87l-280-280-77-77c-8.32-8.321-26.62-20.715-30-32l-2-2-6-6-2-2-5-2 1-3h-4l-1-1 1-6-6-1 14-9 16-16h4l12-8c2.52-4.277 8.12-7.229 13-8l-27-28-8.94-11 7.94-10 23-23 93-93 247-247 76-76 34-34h1v157c0 11.073 2.38 46.655-3 48v1h3v1c-3.31.973-3.39 2.739-3 6l-6-2v1h4v1l-5 4h-1l-3 6v-4l-4 4h4l-94 94-47 48c24.65-17.366 45.66-44.657 67-66l135-135 135-135c21.34-21.343 48.63-42.347 66-67h-269c-7.92 0-19.54-2.149-27 .603-8.54 3.15-16.65 15.048-23 21.397l-52 52-128 128c-20.71 20.709-47.15 41.079-64 65h-1l-36-37-71-71-71-71-37-36 29 30 12 14h3v1h-157c-4.68 0-11.61-1.362-16 .313-11.76 4.494-24.12 22.806-33 31.687-25.51 25.512-50.49 51.758-76.75 76.49C1307.62 308.734 1203.49 418.506 1097 525l2-4-5 2 4-5 3 2 2-4-4 2 3-7h4l-1-3h3c3.09-10.441 16.18-30.999 26-36 .57-4.538 2.01-7.636 6-10 3.17-11.737 21.38-29.382 31-37l-3-1c5.9-6.906 18.09-15.984 20-25l5-2 1-5 2 1 11-14c.8-3.139 1.79-3.693 5-4v-1l-2-2c5.1-2.646 8.84-6.256 10-12h4c.6-8.795 12.14-17.709 18-24l-1-3c2.49 0 9.79-2.298 4-3v-1l7-8-2 1 9-10h1l1 2v-5c3.4-.729 2.99-2.806 3-6l4 1 3-8h1l4 1v-1l-4-2h6l1-2-2-4c6.28-.462 9.65-3.721 10-10h4v-1h-5v-1l8-4-2-2v-1l12-11-4 1 10-10v-1h-3l2-6 3 1-1-3c7.37-4.991-10.01-18.201-13-24h4v-1h-7v-1h2v-1l-4-2 11-9v-1h-5l1-9 7-6v-1l-4-1v-1h3v-1l-4-1v-1c3.43.501 6.77-1.998 2-3l1-2h-3v-1h4l-2-3 2-2 4-2-4-2 6-1-2-4 3-1-3-9 3-4-5-4h4v-4h-4l-10-5v-1l3-4h-5c2.4-2.875 2.91-4.419 0-5l2-3h-4v-1h2v-1h-4l6-4v-1h-7v-1h3v-1h-4v-1l4-4h-4v-1h2v-1l-10-2c2.88-8.031-24.21-5-30-5h-100l42-43c-25.75 18.14-47.7 46.705-70 69L996 251c-18.729 18.729-36.035 39.587-56 57v1c16.669-5.556 42.932-1 61-1 6.16 0 18.91-1.633 18 2l5-2v-4h18l-3 7v1l3 1-5 1-1 2 1 3 5-3v11h-3c-1.36 2.46-2.07 3.39 1 4v1l-3 1 3 1v1l-8 7v1l4 3 2 5-3 1v8l-5-1c2.38 2.98 3.06 4.369 0 7l-1 2 2 4-3 1 2 3-5 2v1l2 2v1l-6 12 1-3h-1l-10 26v1c2.69 4.423-2.45 5.351-6 6l2 3-9 14-1 9h3l-1 3-5-4c-8.103-2.271-16.102-14.102-22-20l-52-52c-5.003-5.003-17.681-22.793-25-22.793-5.589 0-13.319 11.112-17 14.793l-44 44-123 123c-19.757 19.757-44.923 39.177-61 62h-1c-15.303-21.725-39.195-40.195-58-59s-37.275-42.696-59-58l13 14-14.336 15.715L500 547v1l2 2-4-1-2 3c1.051 3.525-2.928 6.234-6 7l1 3-9 6 1 3h-3c-17.824 26.727-46.388 48.455-69.255 70.694-7.92 7.702-21.861 15.387-26.745 25.306l-2-1-6 5-1 1 1 2c-4.943 2.13-11.3 6.823-13 12-4.483.187-7.024 3.13-9 7l-6 2 1 2-26 18-3 6c-8.604.782-18.269 11.79-25.089 16.857-3.212 2.387-6.699 3.946-6.911 8.143l-16 6-6 8-3-1c-5.29 5.583-15.089 13.358-23 14l-8 5c-2.073 3.65-4.871 4.791-9 5l-11.91 8.249L183 807l29 31-46-45v-1l38-37 73-73 228-228c-10.146-14.403-25.542-26.542-38-39l-75-75-233-233-76-76C74.368 22.368 62.525 4.853 51 .603 46.37-1.104 39.875 0 35 0H0z" fill="#2154ab"/><path d="M52 0c9.372 13.304 23.494 24.494 35 36l69 69 214 214 93 93c12.435 12.435 27.055 33.564 43 41l1-1c-5.965-12.792-22.049-24.049-32-34l-71-71-241-241-79-79C75.984 18.985 63.845.893 52 0z" fill="#fcfdfd"/><path d="m57 0 49 50 98 98 303 303h1l26-26v-1c-48.327-48.327-96.97-96.36-144.985-144.996-23.374-23.676-45.81-53.84-73.015-73.004v-1l2-5h-3l1 5-5-7h-3l1-2-3-4 4 1 1 1v3h1c.97-7.039 20.399-4 26-4h72c6.572 0 20.686-2.256 22 7 6.14-1.862 10.009 4.01 14 8 8.967 8.963 17.628 19.693 28 27-14.788-20.993-37.83-38.83-56-57L305 65l-45-45c-5.838-5.838-13.128-16.494-21-19.397C233.85-1.295 226.431 0 221 0H57z" fill="#2154ab"/><path d="m240 0 34 35 66 66 206 206 72.83 72L640 401l9 7.079 8-5.084L675 385l74-74 209-209 67-67 34-35h-75l-33 .603L934 16l-38 38-131 131-86 86-21 21-9 6.369-9-7.369-20-20-78-78L405 56l-39-39L348 .603 315 0h-75z" fill="#f4901c"/><path d="M349 0v1c8.815 6.737 16.15 16.15 24 24l51 51 154 154c22.613 22.613 44.883 51.602 71 70-17.624-25.019-45.34-46.339-67-68-7.147-7.147-22.084-17.266-25-27-3.756-1.048-9.631-9.137-3.718-11.486C564.544 189.039 584.855 193 597 193h102c14.433 0 36.171-4.057 49 3l-1-3h3l-1 3h3l-1-3 5-1v1l-7 8-3-1 1 2-3-1 1 4h-3l-1 1c-2.699 9.63-17.95 19.949-25 27-21.343 21.343-48.634 42.347-66 67l51-50 100-100 99-99 50-51H780c-5.431 0-12.85-1.295-18 .603C751.135 4.61 740.126 20.874 732 29l-48 48c-8.647 8.647-18.953 16.996-26 27l-71-71c-9.606-9.606-20.828-25.886-33-31.972C549.12-1.412 541.329 0 536 0H349z" fill="#2154ab"/><path d="m554 0 35 36 68 68h1l68-68 35-36-52 51-51 52h-1l-51-52-52-51z" fill="#3ea8dd"/><path d="m555 0 35 36 67 67h1l67-67 35-36H555z" fill="#fcfdfd"/><path d="m847 213 15-13-1 2h1l3-4 4 1v-1h-5l2-4c27.615.906 56.173-1 84-1 11.463 0 26.326-2.523 37 2l-2-3 9 3h-3l-1 1 1 2-1 1-2-1c-.938 3.431-2.691 3.834-6 3v1l3 1-5 3-6 6c-3.124 11.144-21.804 23.804-30 32-25.794 25.794-50.531 54.043-78 78v1l16-15h1l1 2h1c8.384-5.69 34.206-3.332 44-1l1-3 2 3 35.714-34.536L1069 174l80-80 41-42-46.48 44.639L1129 97h-35l69-70 26-27h-90l-39 .603L1041 18l-41 41-102 102-51 52z" fill="#2154ab"/><path d="M1094 97c11.66 0 23.34-.12 35 .004 4.37.046 10.34 1.886 14.51.2 10.7-4.32 21.37-20.086 29.49-28.204 22.28-22.279 50.84-43.218 69-69h-35c-5.15 0-12.11-1.2-17 .603-9.87 3.64-19.63 18.03-27 25.397l-45 45c-8.11 8.11-18.22 16.006-24 26z" fill="#162f6d"/><path d="M650 593h-1c-11.951-16.966-30.32-31.32-45-46-18.133-18.133-36.015-40.217-57-55l-1 1c20.506 29.111 51.837 53.837 77 79 6.332 6.332 12.607 12.726 19 18.995 2.035 1.996 4.776 5.464 8 5.084 4.493-.53 9.015-7.094 12-10.079l28-28 110-110 301-301 97-97c15.95-15.95 36.02-31.57 49-50-6.71.506-10.47 5.471-15 10l-27 27-109 109-301 301-97 97c-15.632 15.632-35.275 30.935-48 49z" fill="#fcfdfd"/><path d="M1152 97h100c5.59 0 32.29-3.052 30 5l10 2v1h-2v1h4l-4 4v1h4v1h-3v1h7v1l-6 4h4v1h-2v1h4l-2 3v5h5l-3 4v1l10 5h4v4h-4l5 4-3 4 3 9-3 1 2 4-6 1 4 2-6 4 2 3h-4v1h3l-1 2h3l-5 3v1l4 1v1h-3v1l4 1v1c-4.14.184-5.53 2.27-7 6l-1 9h5v1l-11 9 4 2v1h-2v1h7v1h-4c2.34 6.759 19.14 18.199 13 24l1 3-3-1 1 3c-2.7.989-3.31 2.599 0 3v1l-10 10 4-1-12 11v1l2 2-8 4v1h5v1h-4c-.66 5.878-4.18 9.149-10 10l2 4-1 2h-6l4 2v1l-4-1h-1l-3 8-4-1-3 6v5l-1-2h-1l-9 10 2-1v1l-7 7v1l3 1-7 2 1 3c-6.67 4.857-17.74 15.533-18 24h-4l-10 12 2 2v1c-3.56-.312-5.06.307-5 4l-11 14-2-1-1 5-5 2c-1.62 6.119-22.81 22.199-17 26-9.56 5.305-17.41 17.617-24.17 26.039-2.8 3.496-6.1 6.497-6.83 10.961-4.6 1.787-5.7 5.298-6 10-4.18 1.3-5.6 4.736-8.34 7.946-6.47 7.59-15.83 17.992-17.66 28.054-2.62-.027-2.55.432-2 3h-4l-3 7 4-2-2 4-3-2-4 5 5-2-2 4c13.3-9.372 24.49-23.494 36-35l69-69c72.2-72.202 144.18-144.664 216.92-216.31 25.47-25.092 50.78-50.394 76.08-75.69 8.99-8.988 20.87-26.578 32.58-31.548 4.14-1.76 10.96-.452 15.42-.452h157v-1h-3c-1.55-9.056-15.6-18.605-22-25-16.18-16.176-31.82-32.82-48-49-6.49-6.486-13.74-16.844-22-20.972C1599.02-1.964 1588.57 0 1582 0h-310c-7.07 0-18.58-2.181-25 1.028-10.75 5.375-20.53 19.5-29 27.972-13.51 13.51-26.49 27.49-40 41-8.65 8.647-18.95 16.996-26 27z" fill="#162f6d"/><path d="m1605 0 30 31 58 58 178 178h1l179-179 57-57 30-31c-8.17.616-13.55 8.549-19 14l-37 37-151 151-44 44c-3.46 3.457-10.75 13.944-16 13.944-5.47 0-13.37-11.319-17-14.944l-45-45-148-148-38-38c-5.16-5.157-10.45-12.835-18-14z" fill="#fcfdfd"/><path d="m1609 0 44 45 87 87 86 86 45 44-44-45-86-86-87-87-45-44z" fill="#3ea8dd"/><path d="m1610 0 48 49 50 49-1-2h1l4 3-1-2h1l3 2-1-2h1l1 3h3l1-1-1-2h108l33 2h3l-33-36h56l25-.603L1930 45l44-45h-364z" fill="#162f6d"/><path d="M1912 63h2l-30 30-12 9.944L1860 93l-30-29 33 35h-3l-8-2h-133v3h-3l-2-3 1 2-4-2 1 2-5-3 17 19 34 34 113 113h1l175-175 57-57 29-30h-110c-13.68 0-35.18-4.123-48 .603-7.2 2.654-13.68 12.072-19 17.397-14.36 14.363-32.31 28.4-44 45z" fill="#2154ab"/><path d="M1915 520v1l454 454h1l83-83 21-21c2.22-2.226 6.79-5.497 6.79-9 0-6.685-15.28-17.487-19.79-22l-62-62-172-172-56-56c-9.6-9.6-18.9-21.177-30-29v-1l30-29 56-56 175-175 174-174 56-56 29-30h-204l-21 .603L2422 13l-30 30-105 105-372 372z" fill="#f4901c"/><path d="M2141 520v1l230 230 73 73 39 38c.12-8.253-13.44-17.438-19-23l-60-60-186-186-51-51c-4.97-4.97-16.98-13.103-18.79-20-.94-3.553 3.64-6.837 5.79-9l23-23 96-96 265-265 85-85c14.05-14.045 31.56-27.766 43-44-6.71.506-10.47 5.471-15 10l-24 24-98 98-388 388z" fill="#fcfdfd"/><path d="M2484 860h1l75-75v-1l-190-190-47-47c-3.79-3.792-15.94-12.31-15.94-18 0-3.753 5.55-7.609 7.94-10l25-25 100-100 265-265 85-85c14.05-14.045 31.56-27.766 43-44h-116c-14.23 0-36.67-4.311-50 .603-11.2 4.128-22.62 21.018-31 29.397l-73 73-258 258-119 119-29 29c-2.8 2.804-9.79 7.626-9.79 12 0 6.898 16.11 18.323 20.79 23l63 63 253 253z" fill="#f4901c"/><path d="M3000 1224v-76c0-8.54 2.83-23.29-1.03-31-7.33-14.66-27.38-28.41-38.97-40l-88-88-293-293-124-124-31-31c-2.76-2.761-9.94-7.709-9.94-12 0-3.753 5.55-7.609 7.94-10l25-25 100-100 265-265 85-85c14.05-14.045 31.56-27.766 43-44h-74c-9.29 0-23.26-2.62-32 .603-11.85 4.371-24.12 22.513-33 31.397l-78 78-275 275-108 108-26 26c-2.52 2.522-8.69 6.833-7.65 11 1.35 5.42 9.82 11.168 13.65 15l35 35 131 131 346 346 111 111c18.17 18.17 36.01 41.21 57 56z" fill="#fcfdfd"/><path d="m2766 884-38-39-74-74-29-29-8.94-11 10.94-13 32-32v-1l-109-109c-17.85-17.853-35.37-40.47-56-55v-1c15.87-11.177 29.27-28.272 43-42l83-83 259-259 90-90c8.63-8.632 26.15-20.474 30.4-32 1.51-4.112.6-9.67.6-14h-40c-5.71 0-13.59-1.39-19 .603-11.85 4.371-24.12 22.513-33 31.397l-77 77-288 288-98 98-24 24c-2.42 2.425-7.79 6.188-7.79 10 0 6.898 16.11 18.323 20.79 23l65 65c60.18 60.182 119.83 120.828 180 181l56 56c9.92 9.918 19.53 21.919 31 30z" fill="#f4901c"/><path d="m2999 15-35 36 22-19 4-5 1 3h-3v1h4l-2-6 5-1-2 228v98c8.63-6.152 7-14.436 7-24V39c0-7.216 1.8-17.322-1-24z" fill="#2154ab"/><path d="m2997 19-1 2 1-2m1 2 1 1-1-1m-4 1 1 1-1-1m-4 3 2 6h-4v-1h3l-1-3-4 5-13 10-25 24-94 94-360 360v1l109 109c17.85 17.853 35.37 40.47 56 55v1l-33 32-10.79 13 7.79 10 24 24 65 65 35 34 2-4v-3h-3l3.01-24 .99-10 6-5-3 2 6-12h1l1 3-1-4 8-6h1v-3c20.74 14.607 39.04 37.036 57 55l103 103c13.61 13.612 26.9 27.68 40.96 40.826 4.76 4.454 10.14 12.394 17.04 12.174v1l-2 1 5 2h1v5h1l1-50 2-17v-1l-3-1 2-5h-4l2-2h-3l-3-3c-1.69-9.822-18.87-21.658-25.72-29.025-25.2-27.125-52.1-52.791-78.28-78.975-7.55-7.55-15.01-15.084-22.17-23-3.07-3.397-7.28-6.255-7.83-11l-3 1v-3l3-1c.17-5.868 6.45-12.706 12-14l2-9 4 2v-8h1l1 5h2c.08-7.149 3.41-11.749 8-17v5h1c2.54-5.929 7.38-15.738 13-19l-1-6 9-10 2 6c-2.47-12.653 13.39-17.41 11-29l7 1 3-3h1c-1.03-9.024 2.83-14.89 8.83-21.333 1.57-1.679 4.88-8.729 6.17-6.667h1c2.91-7.559 7.86-27.245 16-30l6-16h4v-18l6-9c5.7-.981 5.03-5.617 7.42-10 2.81-5.166 7.45-10.299 9.01-16 2.03-7.391-.22-15.468 1.57-23h1v21h1l1-9 3 2v-72c0-10.664 2.21-24.057-2-34h-1l-1 3h-1v21h-2c0-7.926 1.62-15.851-4-22l-6 3-2-9h-1c-.46 6.073-3.34 7.059-9 7v-12l-7 2c3.63-15.986 27.74-24.529 34.97-39 2.66-5.324 1.03-14.171 1.03-20v-46l-7 6c-5.14-108.313 2-217.77 2-326l-5 1m-799 9 1 1-1-1zm0 3 1 1-1-1m-5 1-35 34-82 82-249 249-87 87-22 22-6.79 9 8.79 11 28 28c-4.92.309-11.27 3.112-13 8-4.67.698-10.49 3.333-12 8h-4l-16 16c-5.66.846-10.8 4.311-14 9l6 1-2 2 1 4 1 1h4l-1 3 5 2 2 2c.65 3.751 2.25 5.354 6 6l2 2c1.78 10.425 19.59 22.586 27 30l74 74 285 285 89 89 22 22c2.15 2.16 6.83 5.5 6.37 9-.41 3.13-4.3 5.93-6.37 8l-19 19c-23.84 23.84-48.18 47.18-72 71v-7l-7-8h-1v3l-4-2 2 12 3-1c1.1 3.01 1.77 4.07 5 4l-5 5-13-21h-4l-7.69-14.76 3.69-8.24-24.8-27.54-9.91-10.65 3.71-5.81v-2c-10.72-8.48-25.2-27.9-39-30l-1 4-2-1c-3.82 1.94-20.72-10.45-24-14l5 1c-3.92-6.03-11.25-1.39-16.58-.65-6.44.89-13.69-4.52-15.42-10.35h4c-6.22-10.04-14.75-9.06-24-4l2-3v-1l-5 1v3c-2.53-4.07-3.59-8.52-9-8l-10-4v-6l-6 2-6 1 1 2v1c-11.54-5.45-37.82-22.83-47-8l7 2v1l-19-7 8-4v-1l-24-5v4l-24-2v2l16 2c-7.92 6.95-21.51.08-31 0v-1l12-4-16 3 3-6-12-1v1c1.56 4-2.88 4.23-6 4l-9 2 3 2v1l-4 1-1-5h-5l1-3 6-1c-1.93-2.51-4.17-3.86-5 0-4.55-.67-6.31 2.03-8 6h8v1l-16 3v-1h8v-1h-5v-1h5v-1h-32v-1l11-5-3-1v-1l24-1v-2c-6.92 0-30.54-2.83-32 7l-2-1 1 3-4-3c9.63 13.67 24.18 25.18 36 37l69 69 217 217 80 80c8.89 8.89 21.11 26.89 34 29 0-7.01-.86-12.18 5-17l9.67-12.17 5.16-10.83 5.17-4h1c-.79-7.01 4.91-10.9 11-13v-9h4l3-3v-8c6.49-.29 7.12-6.57 8-12 7.22 1.65 7.77-12.72 15-16l5-4-2-6 3-1v6h1c1.38-10.52 4.07-16.85 15-21l-3-5c2.9-1.98 3.49-3.54 3-7l17-13c-.18-4.43 2.5-12.67 8-11l4-5-2-4 5-8h5l-1-3 5 2 1-3 6 1v-5c14.95-.96 27.76-17.6 42-17l6-7c5.94 1.09 7.52-.38 12-4v3h1l-1-2h1l46 45.04 71 70.96 33.09 34.01L2514 1438c-4.96.99-7.76 6.08-11.31 9.41-9.4 8.81-18.26 18.16-27.09 27.59-29.78 31.8-57.83 64.88-82.74 100.58-7.44 10.67-23.86 27.31-24.86 40.42-4.14 1.2-7.85 9.28-10.23 13-7.19 11.26-14.44 25.08-17.75 38-1.27 4.94-4.07 11.29-.74 16 12.48 17.66 32.42 32.7 47.72 48 30.5 30.5 60.52 61.52 91 92 13.59 13.59 31.26 27.08 42 43h-345l1-3h-1l-3 3c4.65 9.97 16.27 18.27 24 26l52 52 38 38c5.35 5.35 11.18 13.56 18 16.97 10.49 5.25 32.29 1.03 44 1.03h141c4.57 0 10.8 1.07 15-1.03 7.54-3.77 14.08-13.05 20-18.97l42-42 139-139 75-75 20-20c2.42-2.42 5.55-6.89 9-7.79 4.54-1.19 10.23 7.02 13 9.79l35 35 95 95c15.31 15.31 30.3 34.53 48 47v-45c0-5.99 1.49-14.33-.6-20-4.13-11.2-21.02-22.62-29.4-31l-72-72-192-192-61-61c-10.55-10.55-20.8-23.4-33-32v-1l37-36 69-69v-1c-6.11-5.85-21.15-26.17-29-15-11.32 1.42-27.81 16.56-36.72 23.66-3.55 2.83-7.89 4.89-9.28 9.34l-3-1-9 10c-5.3.71-11.19 4.86-13 10-9.08.8-22.96 13.05-29.74 19.17-3.22 2.9-9.66 9.4-14.33 9.02-4.88-.4-9.76-7.03-12.93-10.19l-30-30c-38.83-38.83-78-77.37-116-117l3-4 7-4 3 3 6-10v-5h1v4c4.06-1.7 4.86-3.7 5-8l3 1-2-3 23-18v-1l-2-2c10.24-1.72 21.44-16.76 30-23-.31-12.68 23.54-20.36 27-32l2 3h1c-.28-6.31-6.77-10.76-11-15-7.51-7.51-14.49-15.49-22-23-3.52-3.52-8.54-7.13-10-12-4.61-.48-1.95-3.95-1-7 9.78.02 21.16-11.78 28-18v-1l-1-3 16-5 1-3-3-1h6l-2-3 5-4 2-2 31-21 3-7 21-14v-1l-2-1 13-10h1l2 2 1-2v-1l-3 1c-.31-7.277-9.14-13.138-14-18-13.17-13.169-25.82-26.82-39-40l-43-43c-4.36-4.356-11.6-14.61-18.04-15.748-5.2-.919-11.72 8.509-14.96 11.748l-38 38-121 121-32 32c-3.12 3.11-8.36 10.45-13.01 11.08-6.27.86-16.88-13.97-20.99-18.08-17.65-17.65-34.78-40.51-55-55v-1l2-2h-5l2-17V849l1-50-2 1 1-3-3-4h1v2h1l-4-3c-.45-7.5-10.98-14.971-16-20l-45-45-148-148-40-40c-4.29-4.289-14.22-11.011-15.79-17-1.38-5.235 10.49-13.697 13.79-17l48-48c42.83-42.826 85.15-86.154 128-129 21.34-21.344 48.63-42.347 66-67h-4l4-4v4l3-6h1l1 2 4-6v-1h-4v-1l6 2 3-6v-1h-3v-1l2-1 1-11V51l-1-13m4 1 1 1-1-1z" fill="#162f6d"/><path d="m2183 46-1 2h2l-1-2m-992 4 1 1-1-1m6 0 1 1-1-1m457 0 1 1-1-1m-459 2 1 1-1-1m1767 0 1 1-1-1m-790 2 1 1-1-1m2 1 1 1-1-1m785 0 1 1-1-1z" fill="#2154ab"/><path d="M1831 63c7.28 15.605 27.83 29.83 40 42h1l41-42h-82z" fill="#fcfdfd"/><path d="m1912 64 1 1-1-1m-1 1 1 1-1-1m-73 1v1h67l-21-1h-46m72 0 1 1-1-1z" fill="#3ea8dd"/><path d="m1839 67 23 24 10 7.793L1882 91l23-24-23 22-10.66 7.234L1861 88l-22-21z" fill="#2154ab"/><path d="m1840 67 22 23 10 6.578 11-7.579L1904 67h-64z" fill="#162f6d"/><path d="m1099 94 1 1-1-1m4 0-1 2 1-2m605 0 1 1-1-1m145 0 1 1-1-1m3 0v1h3v-1h-3z" fill="#2154ab"/><path d="m1527 97-1 2 1-2m173 0 1 2-3-1 3 3 2-1-3-3zm170 0v1h3v-1h-3zm-777 1 2 2-2-2m45 0-1 4 4-4h-3m13 0-1 3h1v-3m545 0 1 1-1-1zm161 2v1h3v-1h-3m8 0-1 2 1-2z" fill="#162f6d"/><path d="M1303 130v1l6 1-6-2z" fill="#2154ab"/><path d="m1296.33 133.667.34.666-.34-.666M1299 135l1 1-1-1m3.67 1.333.66.334-.66-.334z" fill="#162f6d"/><path d="m1834 140 27 28 11 8.793 11-8.793 27-28h-76z" fill="#f4901c"/><path d="m1302.67 169.333.66.334-.66-.334M879 183l1 1-1-1m-457 1v2h2l-2-2m120 0 2 2-2-2m212 0 1 1-1-1m242 0 1 1-1-1m2 0 1 1-1-1m-702 1 1 1-1-1m2 0 1 1-1-1m459 0 1 1-1-1m-219 1 1 1-1-1m339 0 1 1-1-1m116 0 1 1-1-1m3 0-1 2 1-2m3 0-1 1v1l1 1h1l1-1v-1l-2-1m-459 1 1 3h1l-2-3m335 0 1 1-1-1zm-454 1 1 1-1-1m335 0 1 1-1-1m-454 1 1 1-1-1m451 0 1 1-1-1m119 0 1 3h1l1-3h-3m120 1v1l5-1h-5m-571 0v2h2l-2-2m-119 1 1 1-1-1m123 0 1 1-1-1m446 0 1 1-1-1m7 0 1 1-1-1m-572 1 2 6h3v1l5 6-1-5h3l-2 5v1c49.174 49.174 97.821 98.821 147 148 22.612 22.613 44.883 51.602 71 70v1l-18.999 18-5.794 8L519 463l31 29-1-7h1v2h1l-1-3c7.2-3.721 14.802-15.618 18-23l30 28 51 51h1c79.498-79.499 158.52-159.52 238-239l63-63c6.6-6.6 21.406-16.668 23-26 3.751-.646 5.354-2.249 6-6l5-3-3-1v-1c3.507 1.166 5.288.777 6-3h3l-1-2 1-1 2 1 1-1-9-3 2 3c-9.376-5.004-25.491-2-36-2-28.357 0-56.761.319-85 1l-2 4h5v1l-4-1-4 4 1-2-21.039 18.834L793 266l-95 95-48 49h-1c-13.241-18.797-33.733-34.733-50-51-37.067-37.067-75.536-73.162-111.615-111.159C475.049 234.849 461.681 222.681 449 210c-4.6-4.6-9.865-12.674-17-10-.454-9.563-15.499-7-22-7h-72c-5.549 0-25.633-2.995-26 4h-1v-3l-1-1-4-1m2 0 1 1-1-1m235 1 6 7h1l-3-7h4-8m208 0 1 3h-3l1-3h-3l1 3c-10.309-7.416-33.538-3-46-3H565c-3.516 0-9.326-1.095-12.516.599-5.561 2.954.644 10.73 4.516 11.401 1.64 9.607 17.196 20.196 24 27l68 68h1l67-67c6.805-6.805 22.36-17.393 24-27l1-1h3l-1-4 3 1-1-2 3 1 7-8h-5m118-1-1 2 1-2m125 0v2l2-2h-2m-690 1 1 1-1-1m125 0v1l4 4h3l-7-5z" fill="#162f6d"/><path d="m545 194 1 1-1-1m199 1v3h1l-1-3m126 0v2h2l-2-2m114 0 2 2-2-2zm-558.667 2.667.334.666-.334-.666M747 197l1 1-1-1zm124 1-1 2h2l-1-2m115 0 1 1-1-1zm-550 2 3 4-3-4m116 0v1h6l-1 2h1l1-2-7-1m189 0 1 3h1l-2-3m243.667.333.666.334-.666-.334M737 201l3 3-3-3m239 1v1h3l-3-1m-657 0 1 1-1-1m661 0 1 1-1-1m-661 2 1 1-1-1m544 0 1 1-1-1m114 0 1 1-1-1m-241 1 1 1-1-1m121 0 1 1-1-1m4 0 1 1-1-1m-420 1 2 2-2-2zm861 0-3 2v1h7v-1l-4-2m-735 2 1 1-1-1m-122 2 1 1-1-1m120 0 1 1-1-1m279 5 1 1-1-1m-269 1 1 1-1-1m268 0 1 1-1-1m-1 1 1 1-1-1m-1 1 1 1-1-1m-1 1 1 1-1-1m-1 1 1 1-1-1m-1 2 1 1-1-1z" fill="#2154ab"/><path d="M61 224v83l42-41v-1l-42-41z" fill="#fcfdfd"/><path d="m62 224 1 1-1-1m1 1 1 1-1-1m1 1 1 1-1-1m1 1 1 1-1-1m95 0v77h1v-76l38 37c-8.441-11.982-25.699-31.797-39-38m-94 1 1 1-1-1z" fill="#3ea8dd"/><path d="M161 228v75l38-37v-1l-38-37z" fill="#fcfdfd"/><path d="m67 229 1 1-1-1m1 1 1 1-1-1m1 1 1 1-1-1m-5 1v67c11.832-5.518 26.501-22.355 34-33l-33 32v-65l33 32c-7.499-10.645-22.168-27.482-34-33m6 0 1 1-1-1z" fill="#3ea8dd"/><path d="M65 233v65l33-32v-1l-33-32z" fill="#2154ab"/><path d="m100 268 1 1-1-1m-1 1 1 1-1-1m879 0 1 1-1-1m-880 1 1 1-1-1m-1 1 1 1-1-1m873 0 1 1-1-1m6 0 1 1-1-1m-880 1 1 1-1-1m873 0 1 1-1-1m6 0 1 1-1-1m-880 1 1 1-1-1m1572 34v-3l-11 2c-4.78 3.623-13.2 2-19 2h-182c-20.55 0-46.35 4.131-66-2v3l-3-5c-9.5-2.664-18.44-16.954-25.83-23.486-2.48-2.195-6.43-7.121-10.17-6.169-6.05 1.54-12.69 11.349-17 15.655l-40 40-149 149-45 45c-3.68 3.681-14.79 11.411-14.79 17 0 4.101 6.17 8.383 8.79 11l25 25 101 101 29 29c2.81 2.812 7.38 9.449 12 7.248 12.66-6.024 25.07-24.321 35-34.248l81-81 200-200c30.22-30.22 58.7-64.06 91-92M94 274l1 1-1-1m873 0 1 1-1-1m6 0 1 1-1-1m-880 1 1 1-1-1m873 0 1 1-1-1m6 0 1 1-1-1m-880 1 1 1-1-1m873 0 1 1-1-1m6 0 1 1-1-1m-880 1 1 1-1-1m873 0 1 1-1-1m6 0 1 1-1-1m-880 1 1 1-1-1m873 0 1 1-1-1m6 0 1 1-1-1m-880 1 1 1-1-1m873 0 1 1-1-1m6 0 1 1-1-1z" fill="#3ea8dd"/><path d="M1273 290v1h4l-4-1zm-1 2v1h4l-4-1z" fill="#162f6d"/><path d="m68 300 1 1-1-1m824 0 1 1-1-1m49 0 1 1-1-1m6 0 1 1-1-1m-880 1 1 1-1-1m873 0 1 1-1-1m6 0 1 1-1-1m-880 1 1 1-1-1m873 0 1 1-1-1m6 0 1 1-1-1m-880 1 1 1-1-1m825 0 1 1-1-1m5 0 1 1-1-1m41 0 1 1-1-1m2 0 1 1-1-1m6 0 1 1-1-1m-880 1 1 1-1-1m866 0-2 3 2-3m7 0 1 1-1-1m6 0 1 1-1-1m81 0v4l-5 2c-.54-3.528-5.05-2.108-8-2.019-8.32.254-16.678.019-25 .019-13.001 0-34.321-4.139-46.412.63-5.571 2.197-10.431 9.213-14.588 13.37l-30 30v1l71 71c7.008 7.008 18.119 23.313 28 25l5 4 1-3h-3c1.678-3.363 3.06-5.652 1-9l9-14v-2l-2-1c3.16-.257 10.65-1.897 6-6v-1l10-26h1l-1 3 6-12v-1l-2-2v-1l5-2-2-3 3-1-2-4 1-2c3.69-2.231 2.85-4.264 0-7l5 1v-8l3-1-2-5-4-3v-1l8-7v-1l-3-1 3-1v-1h-3l5-4v-11l-5 3-1-3 1-2c2.71.396 6.54-1.098 2-2v-1l3-7-2 2-16-2m-961 1 1 1-1-1m822 0-2 3 1 1 1-4m2 0 1 1-1-1m47 0 1 1-1-1m2 0 1 1-1-1m6 0-1 2h2l-1-2m101 0 1 1-1-1m-981 1 1 1-1-1m868 0-1 3-32-1-12 2h-1l-1-2h-1l-16 15 26 27h1l28-28 12-15-3-1m5 0 1 1-1-1z" fill="#3ea8dd"/><path d="M1260 309h1l2-2-3 2z" fill="#162f6d"/><path d="m933 308 1 1-1-1m115 0v3h1l-1-3z" fill="#3ea8dd"/><path d="m887 309 1 1-1-1m502 0 2 2v-2h-2m270 0 1 1-1-1m-777 1 1 1-1-1m58 0 1 1-1-1m718 1 1 1-1-1m-780 3 1 1-1-1m43 0 1 1-1-1zM650 540h-1c-14.014-19.895-35.781-36.781-53-54-8.28-8.28-17.055-20.299-28-25l-18 23 1 3h-1v-2h-1l1 7-15-14 38 39 76 76c22.823-16.077 42.243-41.243 62-61l124-124 44-44c3.313-3.313 13.832-10.569 11.248-16-3.285-6.906-12.731-13.74-18.248-18.98-2.22-2.109-4.722-4.828-8-3.268-7.391 3.516-14.242 13.49-20 19.248l-44 44-100 100c-16.267 16.267-36.759 32.203-50 51z" fill="#2154ab"/><path d="m1244.67 327.333.66.334-.66-.334M1240 332l1 1-1-1z" fill="#162f6d"/><path d="m2986 353-1 2 1-2m2.33.667.34.666-.34-.666M2986 356l1 1-1-1m-2387 3 1 1-1-1m1 1 1 1-1-1z" fill="#2154ab"/><path d="M0 363v60c0 7.917-2.148 19.536.603 27 2.903 7.872 13.559 15.162 19.397 21l47 47 59 59c3.937 3.937 19.777 15.464 19.307 21.255-.534 6.577-16.981 18.216-21.707 22.945l-42.4 42.4c-6.917 6.917-16.312 13.908-21.2 22.4L0 628c1.059 6.86 7.307 11.307 12 16l29 29c3.542 3.542 12.685 9.793 13.369 15 .65 4.948-9.234 11.865-12.369 15-12.69 12.69-30.821 25.833-40.397 41C-2.257 750.115 0 761.982 0 769v63c10.005-7.047 18.353-17.353 27-26l48-48 18-17.999c1.977-1.96 4.815-5.788 8-5.37 4.079.536 8.273 6.642 11 9.369l28 28 105 105 356 356 95 95c8.897 8.9 17.828 17.79 26.575 26.83 2.639 2.73 8.353 6.41 9.258 10.26 1.06 4.51-7.067 10.14-9.833 12.91l-35 35-144 144-39 39c-2.908 2.91-9.272 12.03-14 10.79-5.989-1.57-12.711-11.5-17-15.79l-42-42-156-156-184-184-59-59c-10.236-10.24-20.162-22.66-32-31 1.968 12.75 23.088 27.09 32 36l91 91 246 246 79 79c13.093 13.09 25.865 29.34 41 40v1c-23.921 16.85-44.291 43.29-65 64l-130 130-129 129c-20.709 20.71-47.15 41.08-64 65 11.073-.83 21.547-16.55 29-24l71-71 195-195 63-63c10.553-10.55 23.403-20.8 32-33h1c9.63 13.67 24.177 25.18 36 37l71 71 29 29c4.021 4.02 8.528 10.38 14 12.4 8.486 3.13 21.983.6 31 .6h1271c11.27 0 23.86-1.58 35 .15 6.48 1.01 11.62 8.47 16 12.85l35 35 136 136 38 38c5.45 5.45 10.83 13.38 19 14-15.05-21.36-38.51-39.51-57-58l-115-115-46-46c-5.84-5.84-13.13-16.49-21-19.4-7.72-2.84-19.81-.6-28-.6H672c-8.048 0-21.717 2.61-29-1.03-13.237-6.62-25.545-24.51-36-34.97l-78-78-26-26c-2.322-2.32-7.802-6.16-6.793-10 1.081-4.12 6.893-8.1 9.793-11l27-27c32.425-32.42 64.059-65.67 96.856-97.69 28.255-27.59 56.319-55.55 83.889-83.82 5.57-5.71 27.575-21.45 21.088-29.49-15.098-18.7-34.83-35-51.833-52l-104-104-315-315-119-119-30-30c-2.761-2.761-9.944-7.709-9.944-12 0-3.753 5.554-7.609 7.944-10l24-24 98-98v-1L78 440l-50-50-28-27z" fill="#fcfdfd"/><path d="m2030 404 1 1-1-1m-1 1 1 1-1-1m-1 1 1 1-1-1m-1379 3 1 1-1-1m2350 1-26.68 26.907L2964 449l7-2v12c6.18.415 8.78-.306 9-7h1l2 9 6-3c4.58 7.269 4 13.451 4 22h2v-21h1l1 2v-5h1l1 3h1c0-13.788 4.31-36.347-1-49m-976 1 1 1-1-1m-1 1 1 1-1-1m-1 1 1 1-1-1m-1 1 1 1-1-1m-844 2 1 1-1-1m841 1 1 1-1-1m-3 3 1 1-1-1m-1 1 1 1-1-1m-1 1 1 1-1-1z" fill="#2154ab"/><path d="M1160 430v2h2l-2-2zm1824 9 1 1-1-1m-14 3 1 1-1-1m9 2 2 7v-7h-2m-5 1-1 2h2l-1-2z" fill="#162f6d"/><path d="m0 451 25 26 48 48 48 48 26 25-25-26-48-48-48-48-26-25m507 0-2 3 40 40h1l2-2v-1l-41-40z" fill="#3ea8dd"/><path d="M991 451v5l-3-2c-1.276 5.657-5.995 9.014-9.845 13.089-8.198 8.679-20.476 18.86-25.155 29.911l-1-2h-1l-20.373 25.17-39.164 44.195L871 582c-.583 6.174-7.129 13.267-12 17v1l17-14c-7.068 9.635-19.806 19.231-23 31l-4-1v2h-1c0 4.684-6.233 13.692-9 13-.528 4.105-4.431 11.472-9 11h-1c.587 11.292-16.295 22.24-24 29l-6.441 10.042L783 703l1 2-9 11-6 12 8-5-19.167 23-5.833 7h-1l2 3v1l-13 17-4.868 10.039L713 824h4l-15.7 36.995-7.597 10.059L686 904h1v-2h1l2 3v1l-3 2v2h2l-4 8-3-1c-1.182 6.367-3.257 18.297 0 24 38.819-44.51 84.518-84.992 127.004-126.039C865.923 759.968 921.035 702.965 977 647l77-77 20-20c2.33-2.333 6.66-5.467 7.08-9 .82-6.959-15.73-18.498-20.5-22.745-16.28-14.495-31.17-30.844-46.58-46.255-6.89-6.895-14.097-16.848-23-21z" fill="#162f6d"/><path d="M0 452v159l.742 16.424L18 646l40 40h1l65-65c4.677-4.677 20.793-16.102 20.793-23 0-4.101-6.176-8.383-8.793-11l-26-26-72-72c-12.14-12.141-23.963-27.112-38-37m508 0 1 1-1-1m484 0-1 2 1-2m1969 0 1 1-1-1m-2452 1 1 1-1-1z" fill="#2154ab"/><path d="M166 792v1l46 45c-5.478-11.747-19.867-21.867-29-31 9.582-4.955 18.657-10.259 28.09-15.267 4.191-2.225 10.874-3.714 11.91-8.733 4.217.495 7.575-.828 9-5 3.538-.25 7.216-1.323 8-5 7.427-.101 19.069-7.771 23-14l3 1 6-8 16-6 7.83-8.143L320 721l3-6 26-18-1-2 6-2 9-7 12-14 1-1 2 1 4-6 2 1 26.745-24.51 46.704-45.751L480 571c2.616.027 2.554-.432 2-3l9-6-1-3 3 1 3-8 2-3 4 1-2-2v-1l45-52c-8.469-11.163-19.105-21.106-29-31-2.676-2.676-7.584-9.755-12-8.654-8.71 2.171-19.707 18.361-26 24.654l-66 66-246 246z" fill="#162f6d"/><path d="m509 457 1 1-1-1m4 0 1 1-1-1m2440 0 1 1-1-1m-2443 1 1 1-1-1m57 1-2 4h1l1-4m2384 0-1 2v1l4-1v-1l-3-1m20.33 1.667.34.666-.34-.666z" fill="#2154ab"/><path d="m2805 484-26 26-8.79 11 8.79 11 27 26v-51l-1-23z" fill="#fcfdfd"/><path d="M2806 484v75h1v-51l-1-24z" fill="#3ea8dd"/><path d="m547 487 1 1-1-1m2141 0c-10.24 10.239-26.87 21.847-33 35h1l23-24 9-11z" fill="#2154ab"/><path d="m2689 487-24 24-7.79 10 7.79 10 25 24v-46l-1-22z" fill="#fcfdfd"/><path d="M2919 487c4.88 20.482 1 45.945 1 67l-34-33c7.69 10.913 22.87 28.345 35 34v-50c0-4.901 1.9-14.593-2-18z" fill="#3ea8dd"/><path d="m1122 488 1 1-1-1m1796 0-32 33 23-22 9-11z" fill="#2154ab"/><path d="m2919 488-23 23-7.79 10 7.79 10 24 23v-45l-1-21z" fill="#fcfdfd"/><path d="m2802 492-20 20-6.79 9 6.79 9 21 20v-39l-1-19zM935 512l1 1-1-1m165 1v2l2-2h-2m-2.67 3.667.34.666-.34-.666M927 520l1 1-1-1m166 1-1 2 1-2zm-173 6-1 4h1v-4zm165 8-1 2h2l-1-2zm638 13 2 2v-2h-2z" fill="#162f6d"/><path d="M2994 548c-2.03 6.855.05 14.06-1.34 21-1.22 6.056-6.25 11.699-9.28 16.999-2.57 4.504-1.77 9.292-7.38 11.001l-6 9v18h-4l-6 16c-8.66 1.733-8.31 13.233-10.76 19.7-1.43 3.757-4.28 6.277-5.24 10.3h-1l-1-2c-5.95 10.439-15.46 16.882-14 30h-1l-1-2-2 5-7-1c.83 11.699-14.52 16.18-11 29l-2-6-9 10 1 6c-5.86 2.051-11.25 13.253-13 19h-1v-5c-5.61 4.597-7.97 9.842-8 17h-2l-1-5h-1v8l-4-2-2 9c-6.18-.094-12.2 8.064-12 14l-3 1v3l3-1c.23 5.347 4.41 8.215 7.83 12 7.79 8.613 15.96 16.785 24.17 25 25.52 25.519 51.55 50.634 76.28 76.914 7.13 7.574 22.75 18.188 25.72 28.086l3 3h3l-2 1v1h4c-1.48 2.786-2.86 5.383 1 6v1l-2 16v34l-2 15v1l9 9V591c0-8.27 3.19-24.935-3-31l-1 9h-1l-1-21m-1051 1 1 1-1-1z" fill="#2154ab"/><path d="m901 551 1 1-1-1m824 0 1 1-1-1m6 0-1 3h1v-3zm0 5v2h2v-2h-2zm3 1v1l3 1-3-2z" fill="#162f6d"/><path d="m1953 559 1 1-1-1m1 1 1 1-1-1m-214 1 1 4 4-1-2 4h6l-9-7m215 0 1 1-1-1m1 1 1 1-1-1m1 1 1 1-1-1m1 1 1 1-1-1m1 1 1 1-1-1m-223 1 1 1-1-1zm224 0 1 1-1-1m1025.33.667.34.666-.34-.666m-1246.66.666.66.334-.66-.334M1961 567l1 1-1-1m1 1 1 1-1-1m1 1 1 1-1-1m-213.33 1.333.66.334-.66-.334M1964 570l1 1-1-1m1 1 1 1-1-1m1 1 1 1-1-1m-212 1 1 1-1-1m213 0 1 1-1-1m1 1 1 1-1-1m-1086 1 1 1-1-1m866 0 1 1-1-1m221 0 1 1-1-1zm-1092.333 9.333.666.334-.666-.334M1978 584l1 1-1-1m1005 0 1 1-1-1z" fill="#2154ab"/><path d="m2979 598-1 10c3.62-2.576 4.96-7.185 1-10zm-1296 4 3 3v-3h-3zm1293 6v3h1l-1-3z" fill="#162f6d"/><path d="m1694.33 609.667.34.666-.34-.666M2003 609l1 1-1-1z" fill="#2154ab"/><path d="M2970 626v6h1l-1-6M1 627l28 29 30 29-29-30-29-28z" fill="#162f6d"/><path d="m0 632 28 29 28 27-27-28-29-28m200 0 1 1-1-1z" fill="#3ea8dd"/><path d="M0 633v111c20.629-14.531 38.144-37.144 56-55v-1c-17.856-17.856-35.371-40.469-56-55z" fill="#162f6d"/><path d="m1719 637 1 1-1-1m312 0 1 1-1-1m920 0v5h1l-1-5zm-901 19 1 1-1-1m892 0-3 14h1v-6h3l-1-8zm-877 15 1 1-1-1m868 0-1 3h1v-3z" fill="#2154ab"/><path d="m60 684 1 1-1-1m88 0 1 1-1-1m464 0v1h75l-23-1h-52z" fill="#3ea8dd"/><path d="m612 685 37 38h1l37-38h-75z" fill="#fcfdfd"/><path d="m2090 696 1 1-1-1m831 0v2h2v-2h-2zm-824 7 1 1-1-1m816 0v3h1l-1-3z" fill="#2154ab"/><path d="m104 730 31 32 31 30-31-32-31-30z" fill="#162f6d"/><path d="m99 733-65 65-34 35c9.637-6.789 17.671-16.671 26-25l47-47c7.019-7.019 23.662-18.353 26-28z" fill="#2154ab"/><path d="m100 733-74 74c-7.102 7.102-24.257 18.746-25.852 29C-2.77 854.766 7.657 862.656 20 875l34 34 179 179c37.524 37.52 74.825 75.28 113.039 112.09 8.994 8.67 17.771 17.58 26.676 26.33 3.162 3.11 6.516 8.66 11.285 6.58l3 3-1-4c-4.496 0 .844-4.56 2.333-6 5.673-5.47 10.939-11.56 16.834-16.83 21.516-19.25 41.238-41.07 61.666-61.5 5.992-5.99 16.107-21.01 25.167-19.67v-4l-3 1c-2.429-11.75-18.755-22.76-27-31l-72-72-194-194-63-63c-10.553-10.553-20.795-23.403-33-32z" fill="#162f6d"/><path d="m2127 733 1 1-1-1m765 0 3 3v-1l-3-2zm-718 47v2h2l-2-2z" fill="#2154ab"/><path d="m2559 785-74 74v1l70 71 49 47v-5c5.58-.66 12.63-9.099 15-14l12.03-8.406 29.98-22.896L2687 919l8 3v-1h-3c-.24-5.694-5.17-9.167-9-13l-23-23c-24.36-24.362-48.11-49.243-73-73.039-9.22-8.814-17.56-19.608-28-26.961z" fill="#162f6d"/><path d="m2176 787 1 1-1-1m5 0 1 5h4l-5-5m381 0 1 1-1-1zm-386 2 3 3 1-3-1-1-3 1m387-1 1 1-1-1zm-377 7h-1v-2h-1l3 4-1 3 2-1c-4.18 14.147-1 33.243-1 48v137c0 6.009 1 12.597-2 18h5l-2 2v1c18.05 18.28 35.82 36.82 54 55 4.63 4.63 14.17 18.4 21 18.88 6.79.48 17.64-14.52 22-18.88l61-61c5.66-5.665 11.39-11.276 17-17 1.98-2.023 5.46-4.762 4.65-8-1.35-5.42-9.82-11.168-13.65-15l-35-35-132-132-1 3m381-3 1 1-1-1m277 0 1 1-1-1zm-276 1 1 1-1-1m278 0 3 4 1-4h-4zm-273 5 1 1-1-1m196 0v3h-1v-2l-8 8 1 4-1-3h-1l-6 12 3-2-6 5-4 34h3v3c-4.13 3.181.28 7.171 3.02 10 6.44 6.664 13.52 16.055 21.98 20l1-2-1.81-12 1.81-19 6-9-1-3 14-15-1-2 3 1c1.66-9.646-18.82-27.186-27-31zm-2585.333 5.333.666.334-.666-.334M2578 803l1 1-1-1z" fill="#2154ab"/><path d="M2796 825v4l-3-1 1 2-14 15 1 3-6 9v31l-2 3c19.37 16.891 36.81 36.811 55 55l108 108c20.39 20.39 40.45 46.41 64 63v-62l-.6-28-15.4-17-36-36-103-102-31-31-18-16z" fill="#f4901c"/><path d="M709 830v2h2l-2-2zm-497 8 46 47 90 90 90 90 47 46-46-47-90-90-90-90-47-46z" fill="#162f6d"/><path d="M0 855v106c0 13.135-3.936 33.689.603 46 4.614 12.51 24.008 25.61 33.397 35l82 82 204 204 65 65c11.188 11.19 22.062 24.89 35 34v1c-14.769 10.4-27.224 26.22-40 39-3.832 3.83-12.303 9.58-13.654 15-1.386 5.56 11.147 14.49 14.654 18l44 44c3.511 3.51 10.641 13.79 16 13.79 3.503 0 6.773-4.57 9-6.79l22-22 71-71c7.557-7.56 24.33-18.85 27.824-29 1.487-4.32-4.213-8.38-6.824-11l-24-24-102-102-295-295-94-94c-15.632-15.632-30.936-35.275-49-48z" fill="#f4901c"/><path d="m2633 858 1 1-1-1m113 0-2 1v1l2-2m85 0 1 1-1-1zm-349 4v1c30.51 27.193 61.61 57.136 88.42 88 6.77 7.786 25.37 19.612 26.58 30l3-1v1l-1 2-2-2h-1l-13 10 2 1v1l-21 14-3 7-31 21-2 2-5 4 2 3h-6l3 1-1 3-16 5 1 3v1c-8.44 5.2-17.53 17.24-28 18-1.53 3.1-3.48 6.49 1 7 1.31 7.66 11.62 14.62 17 20l4-1 1-3h3l-2-3 16-7 7-6 19-18 3 1c-.11-3.11 2.16-4 5-4l3-3 20-19 2 1 31-26 9-10h1v2h1l-1-3 3 1c-3.16-15.39-28.25-22.026-30-37l36 34 1-4h-2l4-2c8.96-12.141 24.32-21.152 35.58-31.285 5.24-4.727 11.02-11.118 18.42-11.715 0-3.235 3.45-1.948 6-3.167 8.66-4.141 20.65-3.738 30-2.833-6.41-9.104-17.89-22.108-28-27v2h3v1l-8-3c-2.75 4.591-14.11 3.37-19 5-13.99 4.663-22.66 15.479-33 23-4.39 3.192-13.22 12.695-16 12l-15 14v5c-30.17-30.169-60.82-59.82-91-90-6.66-6.663-13.4-13.262-19.99-20-3.47-3.554-5.79-8.022-11.01-6m153-2 1 1-1-1m198 0 1 1-1-1z" fill="#2154ab"/><path d="m696 862-1 2h2l-1-2z" fill="#162f6d"/><path d="M692 888v3h1l-1-3m1971 0 1 1-1-1z" fill="#2154ab"/><path d="m679 898-3 14c4.288-3.05 4.96-9.329 3-14z" fill="#162f6d"/><path d="m690.333 902.667.334.666-.334-.666M2677 902l1 1-1-1zm309 38 2 2v-2h-2z" fill="#2154ab"/><path d="M2684 952c-5.9-.605-11.83 4.764-16 8.654-10.8 10.082-31.58 21.202-38 34.346l-4 2h2l-1 4-6-5c15.3 21.72 39.19 40.19 58 59l118 118c44.52 44.52 89.33 88.65 134 133 22.09 21.94 43.58 50.09 69 68v-104c0-12.97 3.78-32.75-.33-45-1.9-5.65-9.54-10.87-13.67-15l-35-35-124-124-70-70c-11.02-11.024-21.66-24.349-34-33.861-5.14-3.964-25-2.722-31-.056-2.7 1.2-8.02 2.145-8 4.917m31-7 1 1-1-1z" fill="#f4901c"/><path d="m671 949-1 2h2l-1-2z" fill="#162f6d"/><path d="m335 967 1 1-1-1m2256 0c.32 7.556 9.95 13.946 15 19 15 15 29.67 33.79 47 46-.32-7.56-9.95-13.95-15-19-15-14.997-29.67-33.791-47-46m-2255 1 1 1-1-1z" fill="#3ea8dd"/><path d="m2613 968-6 6 8-6h-2z" fill="#162f6d"/><path d="m2602 974 1 3h1l-2-3z" fill="#2154ab"/><path d="m2586 994 12-9c-4.85-.249-9.82 4.923-12 9z" fill="#162f6d"/><path d="m2173 985-1 1v1l1 1h1l1-1v-1l-2-1zm8 7-2 2v1l3 2-1-5z" fill="#2154ab"/><path d="M2621 1001v3l-3-1 1 3h-1v-2h-1l-2 2c-9.94 12.48-31.16 20.03-38 34l-2-1-20 19-3 3-3-1-2 5-3-1-19 18c-3.42.55-6.28 2.5-7 6l-16 7 2 3-4 3-3-1 14 17 31 31 117 117 35 35 17 14v-2l2 1c5.36-5.66 16.28-9.73 24-10l-19 20v1l189 189 61 61 32 31v-203c0-6.26 1.58-15.08-.6-21-4.13-11.2-21.02-22.62-29.4-31-23.99-23.99-48.2-47.78-71.96-71.99-61.26-62.39-123.2-124.17-185.04-186.01l-60-60c-10.24-10.24-20.16-22.66-32-31z" fill="#f4901c"/><path d="m2978 1004 1 1-1-1m2 0 2 4h1l1-4h-4z" fill="#2154ab"/><path d="M0 1008v76c0 9.57-2.714 24 .603 33 3.885 10.53 19.524 21.13 27.397 29l68 68 238 238h1l24-24v-1l-65-65-16-17-7-6 2 1h3l-1 2 1 1 1-3 3 1c-.742-12.36 16.787-21.26 23-31l-74-74-150-150-51-51-28-27z" fill="#162f6d"/><path d="m376 1008 1 1-1-1m1288 0-508 508-164 164-52 52-28 29h233c37.86 0 77.3 3.22 115-.06 7.09-.62 12.3-8.24 17-12.94 11.76-11.76 23.37-23.66 35-35.54 4.3-4.38 12.84-9.93 13-16.46l3-3 1 2h1l5-7-2-2c3.49-.19 6.22-.33 7-4l4-4-4-3 2-2h6l-1 3h1c1.01-3.16.52-5.46-3-6v-4l6 1v-4h7c-2.23-4.85-3.69-7.18 1-11v-1l-3-1 1-12 3 3 3-1 5 3-4-3 4-3 3-4v-1l-8 1 6-2 2-6v-1h3v-1c-.4-3.88 3.73-4.64 7-5l-2-11 5-1v-1h-4v-1l4-7 7-3v-1h-4c2.81-3.27 3.79-4.85 2-9h5v-1c-2.8-1.4-.8-2.45 1-2l-1-4-5 1v-3l7-1-1-3 5-1v-1c-6.6-6.54 2.18-24.6-8-28v-16c4.68-.06 7.09-.49 9-5l-2 4h-5v-1h3v-1h-5v-1h5v-1h-3l1-15 4 1-1-17 2 3h1c0-6.71-1.88-15.83 3-21l-1-4h3l2-15 5 1c-.21-3.03.13-3.95 3-5l-1-12h1v3h1l1-7-4-2-3 10v1l2 3-6 1 1-7 4-1v-2l-3-4 3 1 4-8h1l1 2 2-2-1-8h1v2h1l3-9 3-3 3-13 3 1-3-2 4-8 3 1 7.1-12.1 6.9-12.9 9.4-9.96L1472 1337c.68-5.34 5.16-13.19 11-13l5-6v-1l-6 1 1-3 3 1v-4l2 2 1-1-2-1 1-4 4 1 3-7h1v2h1c2.55-5.3 10.19-6.57 7-13 3.78-.48 6.65-1.24 8-5l6 2-1-5 6 1h1l17-13-7 2 2-4 3 1 5-4-2 4h4c1.04-3.67 3.05-6.49 7-7l3-2v-3c3.56.41 13.02-5.67 13-9l3 1 6-1v-1h-4v-1c8.73-.45 15.25-5.93 23.09-9.1 8.25-3.34 20.73-3.7 25.91-11.9 5.25 2.74 10.56-2.36 16-3.1 15.68-2.13 33.89-10.46 50-7.9l15-2v1l-3 2 83 4v3l8-1 7 2c.66 4.71 23.83 10.09 29 11.36 17.37 4.25 34.72 16.07 49.87 25.43 6.09 3.76 13.93 7.31 18.13 13.21l16 9c-1.36 5.8 3.46 8.08 7 12l3-2 4 8c9.59.95 16.15 19.43 26 24l-2 5 3-2-1 4c2.64.76 6 2.15 4 5l7 4-1 4h4l5 6 6 15 23-21v-1l-228-228-72-73-36-35z" fill="#3ea8dd"/><path d="M2987 1008v1h3l-3-1m4 0 1 1-1-1z" fill="#2154ab"/><path d="M2653 1030c3.06 10.88 18.13 21.13 26 29l66 66a83554.23 83554.23 0 0 1 165.55 166c19.51 19.62 38.87 39.42 58.45 59 9.92 9.92 19.53 21.92 31 30-.35-10.7-12.93-18.93-20-26-19.03-19.03-38.79-37.55-57.29-57.09-59.94-63.31-124.04-123.24-185.71-184.91l-56-56c-8.29-8.29-17.32-21.02-28-26z" fill="#fcfdfd"/><path d="M1728 1060v1h24l-24-1z" fill="#162f6d"/><path d="M1833 1068v1l5-5 10 1v-1h-8v-1h4c-1.03-6.16-13.24.76-9 5h-2z" fill="#2154ab"/><path d="M1861 1064v1h3l-3-1z" fill="#162f6d"/><path d="m1723 1065 4 4v-3l-4-1m60 5 6-4-6 4zm37.67 1.33.66.34-.66-.34m23.33-.33v1h4v1h-3l-2 3v1h6l1-5-6-1zm10.67 1.33.66.34-.66-.34M2479 1072l-1 2 1-2zm-629 2v1h3l-3-1z" fill="#2154ab"/><path d="m1585 1080-1 1-5 8-2 2c-3.92.31-7.81.91-9 5l-12 3v-1l3-4-24.25 16.45-8.75 1.55v2l2 2-6 4-3-1-7-1v-1l5-4v-1l-14 6-7 8-12 1 1 2-13 6 2 2c-4.01 1.91-9.75 3.04-10 8-4.21.88-6.75 2.84-8 7-6.55.96-22.93 12.4-24 19l-17 11-6 11h-1v-3l-5 10c-9.62 1.57-11.99 18.14-23 21l-4 9h-1l-1-2-1 5-14 14-3 8-2-1-2 3-3 5-3 10h-3c-.9 18.06-17.45 17.99-31 18-29.91.01-60 1-90 1H824l41 42 89.911 88.96 31.665 31.33L1002 1466l4 4c.82 4.07 4.32 4.08 8 5l-1-3 13.55-12.68 24.77-24.77 91.93-91.3 24-24L1184 1304l-8 30h1l7-11-6.74 26-2.26 29h1v-2h1l-1 8h-1v-3h-1l-1 11c5.05 2.98 2.35 6.07 0 10l4-2-2 32h1l2-2v18h-1v-4h-1l1 9 8-5-3 24h4l-2 10 5 1v-1l-3-2c4 .66 5.8-.05 7-4l3-3c9.94-2.79 18.84-15.84 26-23l58-58 214-214 64-64c6.33-6.33 21.59-16.68 22-26l5-5h4l-1-3h-3z" fill="#162f6d"/><path d="m1899 1080 1 1-1-1m9 0v1l7 1v-2h-7zm-323 1 2 2-2-2m303 1v1l8 1-8-2zm29 1v1h3l-3-1z" fill="#2154ab"/><path d="M1936 1086v3l3-2-3-1z" fill="#162f6d"/><path d="M1928 1092c-6.79 7.39-1.65 8.57 6 5v-1l-4-4h-2m10 0 1 1-1-1z" fill="#2154ab"/><path d="M1984 1104c3.23-.54 8.21-4.83 7 0l3-1v-2c-4.5-1.5-7.44-1.27-10 3zm-10-1v2h2v-2h-2z" fill="#162f6d"/><path d="m1767 1111 1 1-1-1m197 0v1h3l-3-1m541 0 1 1-1-1z" fill="#2154ab"/><path d="m486 1112 2 2-2-2m1032 0 2 5 4-3-6-2z" fill="#162f6d"/><path d="m1771 1115 1 1-1-1m738 0 1 1-1-1m-2028 1 2 4h1l-3-4z" fill="#2154ab"/><path d="M2008 1117v3h2v-3h-2z" fill="#162f6d"/><path d="m1509 1120-5 4 4 5-1-3 8-1 1-4-7-1m267 0 1 1-1-1m738 0 1 1-1-1zm-2026 2 2 3 1-1-1-2h-2m1290 0 1 1-1-1m738 0 1 1-1-1z" fill="#2154ab"/><path d="m0 1123 39 40 75 75 76 76 39 38-38-39-76-76-75-75-40-39m5 0 1 1-1-1z" fill="#3ea8dd"/><path d="M0 1124v662c10.738-7.56 19.718-18.72 29-28l54-54 167-167 60-60c4.513-4.51 19.793-15.32 19.793-22s-15.28-17.49-19.793-22l-60-60-167-167-54-54c-9.282-9.28-18.262-20.44-29-28z" fill="#162f6d"/><path d="m6 1124 1 1-1-1m486 0 36 37 71 71 71 71 37 36-36-37-71-71-71-71-37-36z" fill="#3ea8dd"/><path d="M488 1125v2l3-1v-1h-3m4 0v3c-9.565-1.27-19.796 13.14-25.94 19.61-19.884 20.93-40.337 42.26-61.666 61.72-5.817 5.31-11.116 11.26-16.788 16.73-1.621 1.56-5.184 5.35-1.606 5.94l1 4-3-3-4 1c12.467 17.7 31.685 32.69 47 48l94 94 37 37c3.342 3.34 11.721 9.07 12.369 14 .533 4.06-5.863 8.49-8.369 11l-26 26-70 70c-5.003 5-22.793 17.68-22.793 25 0 4.63 7.808 10.01 10.793 13 10.649 10.65 21.451 25.31 34 33.62 6.019 3.99 13.232-6.85 17-10.62l42-42c42.878-42.88 85.541-86 128.739-128.55 12.88-12.69 25.56-25.58 38.344-38.37 5.167-5.16 14.226-11.34 17.205-18.09 2.433-5.52-7.919-12.62-11.288-15.99l-41-41-132-132-36-36c-5.237-5.24-10.68-12.95-18-15l-1-3m1289 0 1 1-1-1m738 0 1 1-1-1zm-735 3 1 1-1-1m738 0v4h-1l-2-3c-5 10.22-27.94 19.95-27 32l-30 23 2 2v1l-23 18 2 3-3-1-5 8v-4h-1v5c-4.32 2.4-5.38 5.26-6 10l-3-3-7 4-3 4c10.98 16.01 27.33 29.33 41 43l76 76c9.67 9.67 19.28 19.38 29 29 3.23 3.19 7.99 9.23 12.93 9.58 5.07.35 11.63-6.28 15.15-9.41 6.91-6.15 19.84-17.43 28.92-19.17 2.65-4.55 7.86-8.77 13-10l9-10 3 1c2.16-4.16 6.5-6.46 10.16-9.34 9.39-7.41 24.17-20.86 35.84-23.66l8-5-30-31-57-57-57-57-31-30z" fill="#2154ab"/><path d="M2053 1135v1l3 3h1l1-3-5-1zm38 65c.23 4.57.98 10.01 6 11l7 5v-1l-8-11-5-4z" fill="#162f6d"/><path d="m359 1213 1 1-1-1m1330 2-15 .83-34 6.5-17 3.67c-7.08 7.64-17.75 8.12-26.83 11.9-7.45 3.1-13.94 8.28-22.17 9.1v1h4v1l-6 1-3-1-13 9-1 1 1 2-3 2c-4.35.17-6.34 2.82-7 7h-4l2-4-5 4-3-1-2 4 7-2-17 13h-1l-6-1 1 5-6-2-8 5c2.07 6.7-5.29 7.09-7 13h-1v-2h-1l-3 7-4-1 1 5-1 1-2-2v4l-4 2 6-1v1l-5 6c-6.22-.5-10.74 7.22-11 13-7.71 2.04-6.99 7.34-11.51 12.34-3.8 4.2-9.66 3.24-9.49 10.66-4.04.86-14.87 21.45-14 25l-3-1-4 8 3 2-3-1-3 13-3 3-3 9h-1v-2h-1l1 8h-4l-4 8-3-1 3 4v2l-4 1-1 7 6-1-2-3v-1l3-10 4 2-1 7h-1v-3h-1l1 12c-3.03.86-3.28 1.92-3 5l-5-1-2 15h-3l1 4c-5.32 3.84-3 14.99-3 21h-1l-2-3 1 17-4-1c-1.42 3.88-3.05 13.92 2 15v1h-5v1h5v1h-3v1h5l2-4c-2.42 3.88-4.47 4.85-9 5l2 2-2 14c10 5.56-.3 22.62 8 28v1l-5 1 1 3-7 1v3l5-1 1 4c-2.01-.06-2.96.69-1 2v1h-5l-2 9h4v1l-1 2-6 1-4 7v1h4v1l-5 1 2 11c-2.58.14-10.17 1.31-7 5v1h-3v1l-2 6-6 2 8-1v1h-3v4l-4 3 4 3-8-2-3-3-1 12 3 1v1c-5.67 2.99-4.04 6.5-1 11h-7v4l-6-1v4l2 2 1 4h-1l1-3-8 2 4 3-1 3c10.3-7.25 19.09-18.09 28-27l52-52 162-162 59-59c3.8-3.8 15.18-19.32 21-17.79 8.1 2.12 18.13 16.92 24 22.79l60 60c74.31 74.31 147.77 149.6 223 222.99 24.12 23.53 48.15 47.17 72 71.01 7.86 7.86 18.05 24.19 30 19l-1 3 5-4-10-1v-1h2v-1l-10-10 2-3-1-3-5-1 1-3h-4l2-2v-8h-5v-1l3-1v-1h-4l2-2-1-2 3-1-2-2 3-6h-2l4-3v-1l-3-2-7 3-1-1 3-9-3-1 1-3-5-1v-1h5v-1l-3-1v-1h4v-1h-5l1-3c-2.46-1.13-2.46-1.87 0-3l-1-3 4 1-7-2 2-3-7-1 2-4 4 1-6-6-4.17-11 3.17-6-11-4 1-7h1v2h1l-1-5h4v-1h-4l-5-5c1.49-2.66 3.94-5.13 0-6l-1-11-2-13h-4l4-12h-7l-3.13-18.87L2009 1543c7.42-4.7.42-24.49 8-26l2-7 4-10 4 1 2-13 6-10 6-8-2-7 2 1v-12c2.99-.06 4.35.05 5-3l-5 1c1.47-2.57 3.41-4.21 6-2h1l-1-7c2.44 0 4.95-7.21 1-8v-1c5.35-2.83 3.14-11.8 1-16 5.55-.39 12.22-12.14 6-12v-4h1l27 28 51 50-45-46-88-88h-1l-23 22-6-15-5-6h-4l1-4-7-4 2-2-6-3 1-4-3 2 2-5c-3.82-2.66-8.38-5.65-11.45-9.17-4.57-5.22-6.72-14.56-14.55-14.83l-4-8-3 2-7-12-16-9c-1.07-5.34-10.62-8.81-15-11-5.71-2.85-11.75-8.5-17-12-10.84-7.23-26.07-12.69-39-17-5.91-1.97-26.63-7.48-26-10l-7-2-8 1v-3c-28.09-4.05-54.77-4-83-4l3-2c-3.88-1.63-12.07-2.35-15 1m21.67-1.67.66.34-.66-.34M1869 1213l1 1-1-1zm-1509 1 1 1-1-1m1344.67.33.66.34-.66-.34M1870 1214l1 1-1-1m561.33.67.34.66-.34-.66zM361 1215l1 1-1-1m22 0 1 1-1-1m1379.67.33.66.34-.66-.34M1871 1215l1 1-1-1z" fill="#2154ab"/><path d="M2096 1215v2h2l-2-2z" fill="#162f6d"/><path d="m365 1219 1 1-1-1m5 1v1l5 1v-1l-3-2-2 1m5-1 1 1-1-1m1500 0 1 1-1-1zm-1505 5 1 1-1-1m2 0 1 1-1-1m8 0-5 4c2.968-1.48 4.773-2.09 4 1 3.094 0 2.087 1.75 1 4l3-1 1-5-3 1 1-2-2 1v-3m2 0 2 2-2-2m1241 0 1 1-1-1zm-1251 2 2 2v-2h-2z" fill="#2154ab"/><path d="m374 1228 1 1-1-1m3 0 3 3v-1l-3-2m1238 0-1 3 1-3m269 0 1 1-1-1zm-1505 5 1 1-1-1m1227.67.33.66.34-.66-.34M1889 1233l1 1-1-1z" fill="#2154ab"/><path d="m126 1244 1 1-1-1m1532 10 11-9c-4.72-.1-8.47 5.41-11 9z" fill="#3ea8dd"/><path d="M1631 1282h75l-27-28-11-8.08-11 9.08-26 27z" fill="#fcfdfd"/><path d="m137 1255 1 1-1-1m648 0-2 1v1l2-2m871 0 1 1-1-1zm-1518 1 1 1-1-1m649 0v3h1l-1-3zm-646 3 1 1-1-1m643 1v1l3 3h1l1-2-3-3-2 1z" fill="#3ea8dd"/><path d="m142 1260 1 1-1-1m647 0c3.035 11.26-18.044 19.47-21 30l16.714-.5L806 1275l-8-6-3-3v-3l-3 1v-4h-3z" fill="#3ea8dd"/><path d="m1923 1267 1 1-1-1m421 0-2 3v1c2.67-.75 3.59-1.58 2-4zm-1551 1 3 3v-3h-3m1131 0 1 1-1-1zm-1132 2 2 2-2-2m1134 0 1 1-1-1m420 0c-2.96 4.29-4.98 4.58-10 4l-6 7c-12.88-2.14-28.41 15.3-42 17v5c-3.54-.94-4.92-1.16-7 2l-1-3-4 1 1 3h-5l-5 8 2 4-4 5c-5.56-3.22-8.74 6.62-8 11l-3-1-14 14-3 7 3 5c-11.03 2.88-14.86 10.52-15 21h-1v-6l-3 1 2 6-5 4c-8.34 2.55-7.39 16.66-15 16-1.34 5.12-1.79 11.23-8 12v8l-3 3h-4v9c-6.57 1.43-12.52 5.76-11 13h-1l-1-2-10.32 16.71L2156 1473c-6.66 3.66-5 10.44-5 17l-5-1v1l5 3-2-1c12.73 18.06 32.37 33.37 48 49l95 95c12.51 12.51 24.5 25.5 37 38 4.06 4.06 13.3 10.32 14.79 16 1.14 4.33-6.16 9.37-8.79 12l-29 29-88 88c-13.04 13.04-26.96 32.68-44 40l1-3-3 2h-5l1-2h-5l1-2h-5c23.78 31.4 56.18 58.18 84 86 19.44 19.44 38.54 44.18 61 60l-29-30-68-68-35-36 3-3h1l-1 3h345c-3.14-6.73-9.8-11.8-15-17l-29-29c-31.15-31.15-61.83-62.83-93-94-13.55-13.55-34.48-28.14-44.11-44.71-2.7-4.65.66-10.57 1.67-15.2 2.87-13.21 12.08-29.04 19.98-39.92 2.53-3.48 3.74-7.92 7.46-10.17 0-5.92 5.36-8.72 8-14 4.95-9.91 12.26-17.39 18-26 13.82-20.73 28.82-41.82 46-59 2.38-2.38 5.9-8.5 8-12 1.58-2.63 5.7-4.7 8-7 6.16-6.16 11.98-14.58 18-20 10.76-9.69 19.32-20.51 30-30 3.24-2.88 6.64-10.84 10-10l-12.99-16-28.01-29-90-89.17-35-32.83 1 2h-1v-3h-2zm-1548.333 1.33.666.34-.666-.34M800 1271l1 1-1-1m1127 0 1 1-1-1m413 0 1 1-1-1z" fill="#2154ab"/><path d="m160 1278 1 1-1-1m637 11 24 1c-9.61-13.54-13.312-9.81-24-1z" fill="#3ea8dd"/><path d="m811 1281-2 5h-1l-1-3-4 5 3-2 3 1 1-3h3v-1l-2 1v-3m1126 0 1 1-1-1z" fill="#2154ab"/><path d="m164 1282 1 1-1-1m1466 0v1h77l-24-1h-53z" fill="#3ea8dd"/><path d="M1189 1304h-2v-4l-3 4 1 14h1l9-22c-5.41.42-5.94 2.98-6 8m763-8 1 1-1-1zm6 6 1 1-1-1m753 10v2h-3c11.14 14.56 21.23.04 29-11l-26 9zm-2415-4v1l4 1v-1l-4-1m4 0 1 1-1-1m1664 0 1 1-1-1m738 0 1 1-1-1zm-2415 3 1 1-1-1m11.667.33.666.34-.666-.34M280 1341l-4 2v-3l-1-1-2 1-2-2c5.519 11.35 19.143 21.14 28 30 19.122 19.12 37.909 43.44 60 59v1c-5.372 3.78-22.793 17.06-22.793 24 0 7.04 16.943 19.25 21.793 24 2.022 1.98 4.762 5.46 8 4.65 5.726-1.42 11.941-10.59 16-14.65l38-38v-1l-112-112h-1v3c-.704-1.87-1.444-5.77-4.058-5.8-3.08-.03-5.722 4.49-7.616 6.43-6.302 6.47-16.392 12.36-15.326 22.37m1687-30 1 1-1-1m738 0 1 1-1-1z" fill="#2154ab"/><path d="m304 1314 1 1-1-1m2 0v4h1l-1-4zm-2 3v3h1l-1-3m5 0 1 1-1-1z" fill="#162f6d"/><path d="m1480.67 1318.33.66.34-.66-.34M1974 1318l1 1-1-1zm6 6 1 1-1-1m737 0-105 105v1l261 261 84 84 43 42v-190l-.6-20-22.4-24-55-55-137-137-43.99-44.01L2717 1324zm-2445.667 3.67.334.66-.334-.66M1983 1327l1 1-1-1zm-798.67 1.67.34.66-.34-.66M1984 1328l1 1-1-1m268.67.33.66.34-.66-.34zM265 1329v1l5 3-5-4m1720 0 1 1-1-1zm-1714 4-4 2 6 2-2-4zm3 3 1 1-1-1m2 0v1l2 1h-3v1h4v-2l-3-1m1716 0 1 1-1-1z" fill="#2154ab"/><path d="m2244 1347-1 3h3l-2-3z" fill="#162f6d"/><path d="m1976 1360 3 3v-3h-3z" fill="#2154ab"/><path d="M1264 1761h154c4.87 0 11.37 1.1 16-.6 7.54-2.78 14.42-12.82 20-18.4l45-45 110-110c17.85-17.85 40.47-35.37 55-56h1c12.72 18.06 32.37 33.37 48 49l95 95 57 57c8.69 8.69 17.59 20.83 28 27.4 5.37 3.38 14.88 1.6 21 1.6h50c7.34 0 17.04-1.89 23 3.15 20.27 17.12 38.23 38.08 57 56.85l113 113 46 46c5.84 5.84 13.13 16.49 21 19.4 6.95 2.56 17.63.6 25 .6h54c-13.76-19.53-35.1-36.1-52-53l-105-105-325-325-116-116-29-29c-2.8-2.8-7.63-9.79-12-9.79-3.17 0-5.98 3.78-8 5.79l-18 18-73 73-202 202-65 65c-11.19 11.19-24.89 22.06-34 35z" fill="#f4901c"/><path d="m733.333 1365.67.334.66-.334-.66m5 0 .334.66-.334-.66M2759 1365l1 1-1-1z" fill="#3ea8dd"/><path d="m1441 1367 1 1-1-1m783 0v2l2-2h-2zm-1044 6-2 5h1l1-5m260 0-1 3 1-3z" fill="#2154ab"/><path d="m140 1388-27 27-8.793 11 8.793 11 28 27v-52l-1-24z" fill="#fcfdfd"/><path d="M1174 1394v3h1l-1-3zm554 1v1h14l-14-1zm-14 3v1h2v1l-10 1c19.56 25.46 46.3 47.3 69 70 16.9 16.9 33.47 38.24 53 52l-1-3 3-8h-4l1-8h1v2h1v-26h-1v8h-2c0-3.69 1.46-10.44-3-11l-1-5h6v-1l-7-1c-.69-6.73-4.7-20.71-11-24-1.14-8.97-14.89-23.7-24-24l1-3-9-3-1-9-5 2 1-2h-1l-15-4-30-3-5-3-8 1m30-1v1h8l-8-1z" fill="#162f6d"/><path d="M2055 1400v4c6.09 0-1.21 11.48-6 12 1.59 4.86 3.72 12.12-1 16v1l3 1-4 7 1 7h-1c-1.96-3.6-5.37-1.31-6 2l5-1-5 3v12l-2-1 2 7c-3.77 1.97-6.27 3.53-6 8l-6 10-2 13-4-1-4 10-2 7-3-1c-2.04 8.62 1.67 19.97-5 27l-3.52 22.17L2009 1584h7l-4 12h4l2 13 1 11 3 1-3 5 5 5h4v1h-4l1 5h-1v-2h-1l-1 7 11 4c-6.13 7.4.79 9.29 1 17l6 6-4-1-2 4 7 1-2 3 7 2-4-1 1 3c-3.15.66-3.15 2.34 0 3l-1 3h5v1h-4v1l3 1v1h-5v1l5 1-1 3 3 1-3 9 1 1 7-3 3 2v1l-4 3h2l-1 8-3 1 1 2-2 2h4v1l-3 1v1h5v8l-2 2h4l-1 3 5 1 1 3-2 3c6.28 1.92 2.25 10.67 10 10v1h-2v1l10 1-5 4 1-3-9 2 32 33 61 61h1l5-1-1 2h5l-1 2h5l3-2-1 3c16.32-4.87 30.15-25.15 42-37l91-91 29-29c2.68-2.68 9.76-7.58 8.65-12-1.95-7.84-16.02-17.35-21.65-23-18.11-18.19-35.83-36.83-54-55-46.84-46.84-93.91-93.47-141-140-23.81-23.53-46.34-51.77-73-72m739 0 1 1-1-1z" fill="#3ea8dd"/><path d="m1707 1401 1 1-1-1m3 0-1 2 1-2m1 3 4-3-4 3m30-3v2h3v-2h-3zm8 2v1h3l-3-1zm11 5v1h4l-4-1z" fill="#2154ab"/><path d="m692 1412 1 1-1-1m1356 0v2l2-2h-2m758 0 1 1-1-1z" fill="#3ea8dd"/><path d="m292 1415 1 1-1-1m5 0 1 1-1-1m1118 0 1 3h1l1-3h-3zm-1 7-1 1v1l1 1h1l1-1v-1l-2-1m3.33.67.34.66-.34-.66z" fill="#2154ab"/><path d="M1803 1431v1h4l-4-1zm13 17v3h1l-1-3zm-634 2v5h2v-5h-2z" fill="#162f6d"/><path d="m335 1453 1 1-1-1m311 0 1 1-1-1m5 0 1 1-1-1m2196 0 1 1-1-1m-2717 1 1 1-1-1m201 0c7.694 10.92 20.078 23.31 31 31-7.694-10.92-20.078-23.31-31-31m5 0 1 1-1-1m309 0 1 1-1-1m5 0 1 1-1-1z" fill="#3ea8dd"/><path d="M331 1455 73 1713l-62 62c-3.084 3.08-19.908 21.45-8 24v3H0v1c3.351-.4 7.538-.31 8-4l21-4c0-5.68 15.095 2.37 16-6 18.425-2.85 30.016-16.02 43-29l52-52 222-222v-1l-31-30zm672 11 3 3v-1l-3-2m2 0 1 1-1-1zm184 1v13h1l-1-13m851 0 1 1-1-1zm-853 3-1 2h2l-1-2zm-180 2 1 1-1-1m1144 0v4h1l-1-4z" fill="#2154ab"/><path d="M1010 1476v1l3 1-3-2m4 0 1 1-1-1z" fill="#162f6d"/><path d="M1824 1480v4h1l-1-4z" fill="#2154ab"/><path d="M2031 1480v4h1l-1-4m843 0 1 1-1-1m-2511 1 1 1-1-1m255 0 1 1-1-1z" fill="#3ea8dd"/><path d="m1012 1481-3 4 3-4m3 0-1 4h1v-4z" fill="#162f6d"/><path d="m362 1485-258 258-73 73c-8.632 8.63-26.147 20.47-30.397 32-4.539 12.31-.603 32.86-.603 46v106l49-48 95-95 295-295v-1l-50-50-27-26z" fill="#f4901c"/><path d="m1011 1485-2 3 4-1-2-2zm-7 4-3 4 3-4m3 0-1 4h1v-4m169 0 1 1-1-1zm1 2 1 1-1-1m971 0v1l3 1-3-2zm-1145 2-2 3 4-1-2-2m173 0 1 1-1-1z" fill="#162f6d"/><path d="M1394 1496v2h2v-2h-2z" fill="#2154ab"/><path d="M994 1500h4l1-1-5 1zm836 4v3h1l-1-3z" fill="#162f6d"/><path d="m2906 1512 1 1-1-1m-2320 1 1 1-1-1m2321 0 1 1-1-1m-2322 1 1 1-1-1m2323 0 1 1-1-1m-2324 1 1 1-1-1m2325 0 1 1-1-1m-2326 1 1 1-1-1m2327 0 1 1-1-1m-2328 1 1 1-1-1m2329 0 1 1-1-1m-2330 1 1 1-1-1m2331 0 1 1-1-1m-2332 1 1 1-1-1m2333 0 1 1-1-1m-2334 1 1 1-1-1m2335 0 1 1-1-1m-2336 1 1 1-1-1m2337 0 1 1-1-1m-2338 1 1 1-1-1m384 0 1 1-1-1m6 0-3 2v1l3-3zm1949 0 1 1-1-1m-2340 1 1 1-1-1m2341 0 1 1-1-1m-2342 1 1 1-1-1m2343 0 1 1-1-1m-2344 1 1 1-1-1m2345 0 1 1-1-1m-2346 1 1 1-1-1m390 0-2 3 2-3m1957 0 1 1-1-1m-2348 1 1 1-1-1m2349 0 1 1-1-1m-2350 1 1 1-1-1m828 0v8h1l-1-8m1523 0 1 1-1-1m-2352 1 1 1-1-1m2353 0 1 1-1-1m-2354 1 1 1-1-1m287 19 1 3-10.089 4.7-31.911.3v1h9v1h-12v1h9l-5 5c-.654-3.05-2.007-2.94-5-3v1l3 3-38 5v1h4v1l-36 3.15-13.089 8.15L706 1587v1l5-1-10 5v-1l6-1v-1l-3-3h-11c-4.339 15.27-26.612 5.59-37 11v1h4v1h-6l1 4c-7.291-1.21-25.581-.04-32.816 2.7-4.462 1.7-6.457 6.96-11.277 8.02-5.758 1.27-21.113-1.65-17.907 8.28l-17 2c-12.31-3.38-18.854 3.62-29.015 7.4-4.361 1.62-10.385.6-14.985.6v-1h2v-1l-7 1v4l-12-2c8.339 11.84 20.764 21.76 31 32l60 60 24 24c3.755 3.75 7.884 9.51 13 11.4 5.667 2.09 14.014.6 20 .6h45c6.573 0 17.017 1.96 23-1.03 8.613-4.3 16.23-15.2 23-21.97l47-47c34.843-34.84 69.162-70.16 104-105 17.853-17.85 40.47-35.37 55-56l-28.985 1.56-12.016 8.12-23.984.92-9.054 5.97L856 1549m2068-19 1 1-1-1m-2356 1 1 1-1-1z" fill="#3ea8dd"/><path d="m1664 1531-154 154-49 49-26 27h459l-39-40-76-76-75-75-40-39z" fill="#2154ab"/><path d="m2952 1558 1 1-1-1m-2511 1 1 1-1-1m99 0 1 1-1-1m2413 0 1 1-1-1m-2511 1 1 1-1-1m97 0 1 1-1-1m2415 0 1 1-1-1m-2511 1 1 1-1-1m95 0 1 1-1-1m279 0v2l2-2h-2m2138 0 1 1-1-1z" fill="#3ea8dd"/><path d="m438 1562-103 103-26 26-11 15h1c3.351-9.56 12.089-5.16 19.946-7.43 4.044-1.17 5.481-5.6 9.148-7.43 5.093-2.54 14.153-2.17 19.906-3.14 3.579-12.71 16.642-5.77 25.83-8.32 3.767-1.04 5.945-4.94 9.171-6.94 4.931-3.05 12.635-2.02 17.999-.74l-1-3c4.41 1.3 18.115 3.54 18-3l6-5 13.91-.46L454 1646l34-34v-1l-50-49z" fill="#2154ab"/><path d="m439 1562 1 1-1-1m5 0 1 1-1-1m93 0 1 1-1-1m2419 0 1 1-1-1m-2516 1 1 1-1-1m5 0 1 1-1-1m91 0 1 1-1-1m2421 0 1 1-1-1m-2516 1 1 1-1-1m5 0 1 1-1-1m89 0 1 1-1-1m2423 0 1 1-1-1m-2516 1 1 1-1-1m5 0 1 1-1-1m87 0 1 1-1-1m2425 0 1 1-1-1m-2516 1 1 1-1-1m5 0 1 1-1-1m85 0 1 1-1-1m2427 0 1 1-1-1m-2516 1 1 1-1-1m5 0 1 1-1-1m83 0 1 1-1-1m236 0v1h4v1h-12v1h8v5l5-2-1-3 4-2-8-1m2193 0 1 1-1-1m-2516 1 1 1-1-1m5 0 1 1-1-1m81 0 1 1-1-1m2431 0 1 1-1-1m-2516 1 1 1-1-1m5 0 1 1-1-1m79 0 1 1-1-1m2433 0 1 1-1-1m-2516 1 1 1-1-1m5 0 1 1-1-1m77 0 1 1-1-1m2435 0 1 1-1-1m-2516 1 1 1-1-1m5 0 1 1-1-1m75 0 1 1-1-1m2437 0 1 1-1-1m-2516 1 1 1-1-1m5 0 1 1-1-1m73 0 1 1-1-1m2439 0 1 1-1-1m-2516 1 1 1-1-1m5 0 1 1-1-1m71 0 1 1-1-1m232.667.33.666.34-.666-.34M2967 1573l1 1-1-1m-2516 1 1 1-1-1m5 0 1 1-1-1m69 0 1 1-1-1m2443 0 1 1-1-1m-2516 1 1 1-1-1m5 0 1 1-1-1m67 0 1 1-1-1zm2446 1 1 1-1-1m-2516 1 1 1-1-1m5 0 1 1-1-1m63 0 1 1-1-1m2449 0 1 1-1-1m-2516 1 1 1-1-1m5 0 1 1-1-1m61 0 1 1-1-1m2451 0 1 1-1-1m-2516 1 1 1-1-1m5 0 1 1-1-1m59 0 1 1-1-1m2453 0 1 1-1-1m-2516 1 1 1-1-1m5 0 1 1-1-1m57 0 1 1-1-1m2455 0 1 1-1-1m-2516 1 1 1-1-1m5 0 1 1-1-1m55 0 1 1-1-1m2457 0 1 1-1-1m-2516 1 1 1-1-1m5 0 1 1-1-1m53 0 1 1-1-1m2459 0 1 1-1-1m-2516 1 1 1-1-1m5 0 1 1-1-1m51 0 1 1-1-1m2461 0 1 1-1-1m-2516 1 1 1-1-1m5 0 1 1-1-1m49 0 1 1-1-1m2463 0 1 1-1-1m-2516 1 1 1-1-1m5 0 1 1-1-1m47 0 1 1-1-1m1494 0-1 4 3-4h-2m971 0 1 1-1-1m-2516 1 1 1-1-1m5 0 1 1-1-1m45 0 1 1-1-1m2467 0 1 1-1-1m-2516 1 1 1-1-1m5 0 1 1-1-1m43 0 1 1-1-1m2469 0 1 1-1-1m-2516 1 1 1-1-1m5 0 1 1-1-1m41 0 1 1-1-1m2471 0 1 1-1-1m-2516 1 1 1-1-1m5 0 1 1-1-1m39 0 1 1-1-1m2473 0 1 1-1-1m-2516 1 1 1-1-1m5 0 1 1-1-1m37 0 1 1-1-1m2475 0 1 1-1-1m-2516 1 1 1-1-1m5 0 1 1-1-1m35 0 1 1-1-1m169.667.33.666.34-.666-.34z" fill="#3ea8dd"/><path d="m1663 1596-2 1v1h4l-1 2 5-1v-1l-6-2m3 0 1 1-1-1zm2 4v3h1l1-3h-2z" fill="#162f6d"/><path d="m656 1601 3 2v-1l-3-1m723.67.33.66.34-.66-.34z" fill="#2154ab"/><path d="m1670 1602 2 6h1l-1-6h-2z" fill="#162f6d"/><path d="m484 1607 1 1-1-1m5 0 1 1-1-1m3 0 1 1-1-1m-7 1 1 1-1-1m5.667.33.666.34-.666-.34M486 1609l1 1-1-1zm1 3 1 1-1-1m7 0 1 1-1-1m-8 1 1 1-1-1m9 0 1 1-1-1m-10 1 1 1-1-1m6 0c3.236 4.8 22.855 18.66 15 24l-1-4 2 6c-5.749.73-26.671 1.72-27 8h-5c1.237 6.18-18.974 1.87-20 7l-3-2 2 4-2 2h-1l-2-2 1 3-4 1 1-2c-20.993 14.79-38.83 37.83-57 56l-114 114-114 114c-18.17 18.17-41.212 36.01-56 57h549c4.875 0 11.37 1.1 16-.6 11.525-4.25 23.368-21.77 32-30.4l52-52c8.965-8.96 19.694-17.63 27-28l-5 1-24.996 2.26-17.004 8.3-29 .53-11.985 2.88L680 1901v1h8v3h8v2l-21.015 3.95-31.985.28-11 4.88-32.961.74-10.129 4.89L573 1925l-3-3 111-111 32-32 15-13.4 17-.6h163l-2 3 11-3-2 2v1h93v1l-32 1-1 4 49 1v1l-3 1 51 1v1h-8v1l32 1-2 5 27 1h71v3c9.06.07 30.95-2.34 38 3l-3-1 1 3c11.19-6.4 24.64-20.55 32-31H660l-17-.6-14-12.4-28-28-72-72-38-37m5 0 1 1-1-1m-12 1 1 1-1-1z" fill="#3ea8dd"/><path d="m454 1655 3-1c4.335-4.14 17.141 1.11 18-6h5c.867-6.29 21.247-6.93 27-8l-2-6 1 4 3-1c-.788-6.07-11.887-22.43-19-20.65-7.527 1.87-16.595 15.25-22 20.65-4.701 4.7-14.105 10.95-14 18z" fill="#2154ab"/><path d="m481 1618 1 1-1-1m19 0 1 1-1-1m-20 1 1 1-1-1m21 0 1 1-1-1m-22 1 1 1-1-1m23 0 1 1-1-1m88.667.33.666.34-.666-.34M478 1621l1 1-1-1m25 0 1 1-1-1m-26 1 1 1-1-1m27 0 1 1-1-1m-28 1 1 1-1-1m29 0 1 1-1-1m39 1v7l7-8-7 1m-69 0 1 1-1-1m31 0 1 1-1-1m28 0v6h2v-6h-2m-60 1 1 1-1-1m33 0 1 1-1-1m-34 1 1 1-1-1m35 0 1 1-1-1m-36 1 1 1-1-1m37 0 1 1-1-1m-38 1 1 1-1-1m39 0 1 1-1-1m-40 1 1 1-1-1m41 0 1 1-1-1m-42 1 1 1-1-1m43 0 1 1-1-1m-44 1 1 1-1-1m45 0 1 1-1-1m-46 1 1 1-1-1m47 0 1 1-1-1m-48 1 1 1-1-1z" fill="#3ea8dd"/><path d="M509 1633v3h1l-1-3zm8 1v1h3v-1h-3m4.333.67.334.66-.334-.66M524 1634l1 1-1-1zm-15 3 1 3h1l-2-3m4 0-1 2 1-2m7 0 1 1-1-1m3.333.67.334.66-.334-.66z" fill="#2154ab"/><path d="m449 1650 1 1-1-1m-1 1 1 1-1-1m-2 1v2l2-2h-2m-2 2v2l2-2h-2z" fill="#3ea8dd"/><path d="m449 1656 2 3h1l2-2-1-3-4 2m13-2 1 1-1-1z" fill="#2154ab"/><path d="M441 1657v2l2-2h-2z" fill="#3ea8dd"/><path d="m448 1657-2 4c2.638-.91 3.887-1.6 2-4m902 0 1 1-1-1m2 0 1 1-1-1z" fill="#2154ab"/><path d="m439 1660 1 1-1-1m-15 1-6 5 1 3h-19l1 3c-5.313-1.57-14.085-2.32-18.996.74-3.231 2.02-5.289 5.92-9.094 6.94-8.59 2.31-22.913-4.57-24.91 8.32-5.616.56-15.926.58-20.812 3.14-3.672 1.93-4.972 6.25-9.207 7.43-7.244 2.02-16.938-2.31-18.981 7.43h-1l1-3-3 4c-10.485 3.56-19.308 16.31-27 24l-56 56-142 142c-22.612 22.61-51.603 44.88-70 71h71c8.048 0 21.717 2.61 29-1.03 12.172-6.08 23.394-22.36 33-31.97l71-71 157-157 50-50c8.965-8.96 19.694-17.63 27-28h-15z" fill="#3ea8dd"/><path d="m406 1663 3 4v-4h-3m1626 0 1 1-1-1z" fill="#3ea8dd"/><path d="m430 1664-1 3h1v-3m917 0 1 1-1-1zm-920 1-5 2v1l5-1-1 3h1v-5z" fill="#2154ab"/><path d="m1351 1669-1 4h1v-4m-978 2v1h3l-3-1m-6 1 1 1-1-1z" fill="#3ea8dd"/><path d="M1334 1683v1h5l-5-1m6.67-.67.66.34-.66-.34zm-11 4 .66.34-.66-.34m3.33 2.67 5-3c-2.99.06-4.35-.05-5 3m-982-2 1 1-1-1m979 1 2 3-2-3zm0 4v2l2-2h-2zm-2 1-3 4c2.64-.5 3.6-1.25 3-4zm1481 1-205 205-66 66-34 35c10-7.05 18.35-17.35 27-26l48-48 151-151 57-57c6.14-6.14 19.95-15.53 22-24z" fill="#2154ab"/><path d="m2810 1694 32 33 63 63 62 62 33 32-32-33-63-63-62-62-33-32z" fill="#3ea8dd"/><path d="M2505 2000c8.2-1.27 14.39-10.39 20-16l44-44 171-171 51-51c3.96-3.96 13.09-16.94 19-16.94 4.78 0 10.89 8.83 14 11.94l35 35 93 93c15.31 15.31 30.3 34.53 48 47-1.54-10-15.12-19.12-22-26l-61-61-79-79-19-19c-2.23-2.22-5.5-6.79-9-6.79-6.25 0-15.82 13.61-20 17.79l-56 56-154 154-49 49c-8.65 8.65-18.95 17-26 27z" fill="#fcfdfd"/><path d="m2002 1698 1 1-1-1m1 1 1 1-1-1m806 0-202 202-65 65-33 34c9.64-6.79 17.67-16.67 26-25l48-48 148-148 57-57c5.92-5.92 19.02-14.82 21-23z" fill="#3ea8dd"/><path d="m2810 1699 47 48 47 46-47-48-47-46m-1487 1 1 1-1-1z" fill="#2154ab"/><path d="M2510 2000h490v-76c0-9.84 2.81-24.75-.6-34-1.89-5.12-7.65-9.25-11.4-13l-24-24-86-86-51-51c-3.51-3.51-12.44-16.04-18-14.65-7.82 1.95-17.37 16.02-23 21.65l-56 56-147 147-48 48c-8.33 8.33-18.21 16.36-25 26z" fill="#162f6d"/><path d="m294.667 1706.33.666.34-.666-.34M1311 1706v1h5v-1h-5zm745 6v2l2-2h-2m-746 1 1 1-1-1z" fill="#2154ab"/><path d="m2017 1713 1 1-1-1m1 1 1 1-1-1m1 1 1 1-1-1m1 1 1 1-1-1m1 1 1 1-1-1m1 1 1 1-1-1m1 1 1 1-1-1m1 1 1 1-1-1m1 1 1 1-1-1m1 1 1 1-1-1m1 1 1 1-1-1m1 1 1 1-1-1m1 1 1 1-1-1m1 1 1 1-1-1m1 1 1 1-1-1m1 1 1 1-1-1m2 2 1 1-1-1m1 1 1 1-1-1m1 1 1 1-1-1m1 1 1 1-1-1m1 1 1 1-1-1m1 1 1 1-1-1m1 1 1 1-1-1m1 1 1 1-1-1m1 1 1 1-1-1m1 1 1 1-1-1m1 1 1 1-1-1m11 0 1 1-1-1m-10 1 1 1-1-1m1 1 1 1-1-1m1 1 1 1-1-1m1 1 1 1-1-1m1 1 1 1-1-1m1 1 1 1-1-1m1 1 1 1-1-1m1 1 1 1-1-1m1 1 1 1-1-1m1 1 1 1-1-1m8 0v2h2v-2h-2m-7 1 1 1-1-1m1 1 1 1-1-1m1 1 1 1-1-1m4 0 1 1-1-1m-3 1 2 2v-2h-2m2 2 1 1-1-1m1 1 1 1-1-1m6 0 1 1-1-1z" fill="#3ea8dd"/><path d="m2070.67 1762.33.66.34-.66-.34m-2.67.67 11 10 3-2v-1l-1-2h-5l1-3-9-2z" fill="#2154ab"/><path d="M1025 2000h154c4.87 0 11.37 1.1 16-.6 7.87-2.91 15.16-13.56 21-19.4l46-46 113-113c18.17-18.17 41.21-36.01 56-57h-154c-4.87 0-11.37-1.1-16 .6-7.87 2.91-15.16 13.56-21 19.4l-46 46-113 113c-18.17 18.17-41.21 36.01-56 57z" fill="#f4901c"/><path d="M1431 1764v1h467c-10.74-4.51-29.32-1-41-1h-426z" fill="#3ea8dd"/><path d="M1898 1764c14.79 20.99 37.83 38.83 56 57l113 113 46 46c5.84 5.84 13.13 16.49 21 19.4 7.21 2.65 18.36.6 26 .6h58c-14.79-20.99-37.83-38.83-56-57l-113-113-46-46c-5.84-5.84-13.13-16.49-21-19.4-7.21-2.65-18.36-.6-26-.6h-58z" fill="#f4901c"/><path d="m2812 1764-38 39c13.19-9.29 28.71-24.81 38-38h1c9.29 13.19 24.81 28.71 38 38-9.52-13.51-25.49-29.48-39-39z" fill="#3ea8dd"/><path d="m570 1922 3 3 16.826-3.26 9.764-4.75 33.41-.59 11-5.17 31.961-.28L696 1907v-2h-8v-3h-8v-1l15.004 3.28 11.996-3.19 30-.72 15.004-7.9L777 1890l5-1-73 73-37 38h320c9.29 0 23.26 2.62 32-.6 11.53-4.25 23.37-21.77 32-30.4l73-73 76-76c5.88-5.88 24.89-19.16 22-28l3 1-11-2-27-1v-3h-72l-26-1 2-5-32-1v-1h8v-1l-51-1 3-1v-1l-49-1 1-4 32-1v-1h-93v-1l2-2-11 3 2-3H744l-17 .6-15 13.4-30 30-74 74-38 39m626 78h249l25-.6 17-15.4 38-38 93-93 46-47h1c11.95 16.97 30.32 31.32 45 46l88 88 40 40c5.92 5.92 12.46 15.2 20 18.97 10.71 5.36 33.05 1.03 45 1.03h93c11.76 0 29.96 3.47 41-.6 5.82-2.15 10.71-9.11 15-13.4 10.87-10.87 21.43-24.14 34-33-11.95-16.97-30.32-31.32-45-46l-90-90-36-36c-4.81-4.81-10.48-12.99-17-15.4-7.46-2.75-19.08-.6-27-.6h-425c-4.82 0-11.57-1.19-16 1.03-8.61 4.3-16.23 15.2-23 21.97l-49 49-108 108c-17.54 17.54-39.73 34.74-54 55z" fill="#2154ab"/><path d="m2812 1765-37 38h75c-9.29-13.19-24.81-28.71-38-38z" fill="#fcfdfd"/><path d="M984 1771v2c8.773 0 21.27 2.56 28-4l-28 2m269-3 1 1-1-1zm827 4 1 1-1-1m-1 2v1l7 6 1-3-3 1 1-3-6-2zm-839 4 1 1-1-1m5 0 1 1-1-1m842 3c2.48 4.4 5.9 3.36 9 0h-9m-982.33.33.66.34-.66-.34m7.33 1.67v1h20c-4.77-4.58-13.83-1.05-20-1m124-2v1h5l-5-1m6 0 1 1-1-1m-96 2v1h6l-6-1m90 0 1 2h1l1-2h-3z" fill="#2154ab"/><path d="m45 1789-16 6-21 4c-.473 3.62-4.83 3.4-8 4v44l32-31 31-32-18 5zm1052-3v1h4l-4-1z" fill="#3ea8dd"/><path d="m1233 1787 1 1-1-1m859 0 1 1-1-1m2 1 4 6h1v-7l-5 1m-859 0 1 1-1-1m-35 1v1h16l-16-1m26 0v1h3l-3-1m6 2 1 1-1-1zm877 7-5 1v1l4 4 3-2v-1l-3 1 1-4z" fill="#2154ab"/><path d="m2909 1798 1 1-1-1M0 1799v3h3v-3H0m2910 0 1 1-1-1m1 1 1 1-1-1m1 1 1 1-1-1m1 1 1 1-1-1zm1 1 1 1-1-1m1 1 1 1-1-1m1 1 1 1-1-1m-1252 1-129 129c-20.71 20.71-47.15 41.08-64 65l34-33 63-63 63-63 33-34h1l33 34 63 63 63 63 34 33-33-34-64-64-63-63-34-33m1253 0 1 1-1-1z" fill="#3ea8dd"/><path d="m1664 1807-128 128c-20.71 20.71-47.15 41.08-64 65h385l-33-34-63-63-63-63-34-33zm-1253 2v83l42-41v-1l-42-41zm-93 4c-4.846 23.42-1 51.1-1 75 14.555-6.79 27.657-25.66 39-37v-1l-38-37z" fill="#fcfdfd"/><path d="m2927 1816 1 1-1-1m-2513 1v66l25-23 7.793-10-7.793-10-25-23m2514 0 1 1-1-1z" fill="#3ea8dd"/><path d="M2127 1823h1l3-1-4 1zm2 0v2h2v-2h-2zm19 20v1l4-1h-4zm4 3 6 6 2-5-8-1z" fill="#2154ab"/><path d="m2957 1846 1 1-1-1m1 1 1 1-1-1m-801 1v3h1l-1-3m802 0 1 1-1-1m1 1 1 1-1-1m1 1 1 1-1-1m1 1 1 1-1-1m1 1 1 1-1-1m1 1 1 1-1-1m1 1 1 1-1-1m-806 1 1 1-1-1m807 0 1 1-1-1m-806 1 1 1-1-1m807 0 1 1-1-1m-806 1 2 2v-2h-2m807 0 1 1-1-1m-790 1-1 2 1-2m791 0 1 1-1-1m-806 1 1 1-1-1m2 0 1 1-1-1z" fill="#3ea8dd"/><path d="M2812 1859c-11.34 11.34-30.21 24.45-37 39h76c-9.52-13.51-25.49-29.48-39-39z" fill="#f4901c"/><path d="m2978 1867 1 1-1-1m1 1 1 1-1-1m1 1 1 1-1-1m1 1 1 1-1-1m1 1 1 1-1-1m1 1 1 1-1-1m1 1 1 1-1-1m1 1 1 1-1-1m1 1 1 1-1-1m1 1 1 1-1-1m1 1 1 1-1-1m1 1 1 1-1-1m1 1 1 1-1-1m1 1 1 1-1-1m-2202 1-3 1-2 2-1 4 6-7m2203 0 1 1-1-1m1 1 1 1-1-1m1 1 1 1-1-1m1 1 1 1-1-1m1 1 1 1-1-1m1 1 1 1-1-1m1 1 1 1-1-1m1 1 1 1-1-1zm-2259.333 8.33.666.34-.666-.34M734 1897v2h2v-2h-2zm-70 6v1h8l-8-1m-1.333 2.33.666.34-.666-.34M661 1908v1h3l-3-1z" fill="#3ea8dd"/><path d="M600 1919v1l16 1-16-2m-31 3-8 8v1l3-1-1 2 8-2 1-7-3-1z" fill="#2154ab"/><path d="m569 1924 1 1-1-1m-2 2-1 3h1v-3z" fill="#3ea8dd"/><path d="M2038 2000h95l-34-35-13-11.08-13 10.08-35 36z" fill="#162f6d"/></svg>