<svg xmlns:dc="http://purl.org/dc/elements/1.1/" xmlns:cc="http://creativecommons.org/ns#" xmlns:rdf="http://www.w3.org/1999/02/22-rdf-syntax-ns#" xmlns:svg="http://www.w3.org/2000/svg" xmlns="http://www.w3.org/2000/svg" id="svg8" version="1.1" viewBox="0 0 16.933333 16.933333" height="64" width="64">
<defs id="defs2"></defs>

<g id="layer2">
<path id="path2878" transform="scale(0.26458333)" d="M 2.9960938,2 C 2.4464933,2.0019427 2.0019465,2.4465311 2,2.9960938 V 19.003906 C 2.0019465,19.553464 2.4464933,19.998054 2.9960938,20 h 9.0058592 c 0.401076,-0.0014 0.742244,-0.242228 0.900391,-0.583984 0.523858,0.264982 1.167699,0.615097 1.898437,0.980468 C 16.340534,21.166362 18.258459,22 19.998047,22 h 1.144531 c -0.298583,2.052949 -0.125561,4.094241 0.44336,6 H 12.216797 C 11.764646,27.999172 11.368411,28.301909 11.25,28.738281 L 8.0332031,40.740234 C 8.0097281,40.826634 8.000603,40.913555 8,41 V 60.996094 C 7.9978769,61.548547 8.4436378,61.998046 8.9960938,62 H 60.996094 C 61.551435,62.002135 62.002135,61.551435 62,60.996094 V 40.998047 c -0.0026,-0.08449 -0.01168,-0.171408 -0.03516,-0.257813 L 58.751953,28.738281 C 58.633541,28.301909 58.237309,27.999171 57.785156,28 H 48.414062 C 50.087074,22.409787 48.120783,16.215799 43.208984,12.660156 42.185182,11.919021 41.099911,11.341959 39.964844,10.912109 36.940126,6.6041332 32.479861,2 27.001953,2 24.431954,2 21.166041,2.2680437 18.283203,2.53125 15.998796,2.7398043 14.045142,2.9361365 12.996094,3.0019531 12.996094,2.4340867 12.544804,2.0019276 12,2 Z M 4,4 h 6.998047 V 18 H 4 Z m 32.869141,6.124997 C 35.804146,9.9829684 34.71812,9.9616882 33.654297,10.064453 30.558259,10.363565 27.548228,11.703665 25.201172,14 h -4.199219 c -1.332166,0 -1.343021,2 0,2 H 28 c 1.125317,-5.55e-4 2,0.902031 2,1.996094 C 30,19.090158 29.125317,20 28,20 H 19.998047 C 18.741532,20 17.153606,19.331691 15.693359,18.601562 14.963234,18.236498 14.290177,17.870673 13.701172,17.576172 13.465292,17.458251 13.231474,17.346491 13,17.25 V 5.0078125 c 1.307944,-0.083981 3.257893,-0.2883774 5.46875,-0.4902344 2.867157,-0.2617701 6.105154,-0.515625 8.535156,-0.5156265 3.781595,-1.6e-6 7.174174,2.8008517 9.865235,6.1230454 z m 5.169921,4.15625 c 4.850348,3.511238 6.409011,10.146364 3.478516,15.490234 -1.279824,2.333817 -3.304891,4.177441 -5.716797,5.226563 H 30.203125 C 25.115045,32.783749 22.257095,27.384028 23.167969,22 h 3.054687 c -0.874653,3.824168 0.839996,7.833281 4.316406,9.816406 3.825907,2.182515 8.687318,1.268645 11.457032,-2.15625 2.769675,-3.424894 2.661074,-8.362887 -0.28125,-11.65625 -1.467288,-1.642337 -3.431912,-2.636363 -5.488282,-2.919922 -1.636913,-0.225713 -3.331822,-3.97e-4 -4.892578,0.697266 -0.657865,-0.99109 -1.744048,-1.661555 -2.990234,-1.767578 2.049373,-1.368174 4.444821,-2.046242 6.841797,-2.009767 2.396977,0.03666 4.795525,0.787501 6.853515,2.277342 z m -1.822265,5.052734 c 2.29138,2.563954 2.381905,6.401484 0.228515,9.064454 -2.161965,2.67341 -5.93698,3.384112 -8.917968,1.683593 -2.83903,-1.61952 -4.166593,-5.017995 -3.230469,-8.097656 C 30.356038,21.841776 32,20.12068 32,17.996094 c 0,-0.101934 -0.0081,-0.212683 -0.01563,-0.3125 0.888151,-0.428146 1.819823,-0.644229 2.76758,-0.677737 2.021105,-0.07147 4.040573,0.734644 5.464847,2.328124 z M 12.984375,30 h 9.367187 c 0.915637,1.928357 2.272049,3.649863 3.984376,4.998047 h -5.333985 c -1.363242,-0.03024 -1.363242,2.030243 0,2 h 28 c 1.363238,0.03024 1.363238,-2.030247 0,-2 H 43.662109 C 45.128302,33.84669 46.35293,32.409037 47.273438,30.730469 47.404965,30.490544 47.530453,30.244331 47.646484,30 h 9.371094 l 2.679688,10.001953 H 10.306641 Z M 10,42 H 60 V 60 H 10 Z m 21.998047,3 C 29.746696,45 28,46.969349 28,49.302734 c 7.6e-5,2.683219 1.723464,4.849354 3.326172,6.296875 1.604221,1.448875 3.210937,2.289063 3.210937,2.289063 0.145134,0.07616 0.303849,0.114932 0.462891,0.115234 0.159118,-3.06e-4 0.31787,-0.03904 0.462891,-0.115234 0,0 1.606717,-0.840188 3.210937,-2.289063 C 40.276537,54.152088 41.999962,51.985953 42,49.302734 42,46.969349 40.253304,45 38.001953,45 36.663207,45 35.640593,45.721713 35,46.431641 34.359371,45.721713 33.336831,45 31.998047,45 Z m 0,2 c 1.333077,0 2.089844,1.617187 2.089844,1.617188 0.177259,0.39332 0.544172,0.588582 0.912109,0.58789 0.368126,6.88e-4 0.734737,-0.19457 0.912109,-0.58789 0,0 0.756767,-1.617188 2.089844,-1.617188 C 39.0448,47 40,47.971505 40,49.302734 40,51.166442 38.731261,52.859852 37.330078,54.117188 36.231784,55.102696 35.23331,55.708547 35,55.839844 34.766803,55.708543 33.768177,55.102696 32.669922,54.117188 31.2687,52.859856 30,51.162538 30,49.302734 30,47.971505 30.955238,47 31.998047,47 Z" style="color: rgb(0, 0, 0); font-style: normal; font-variant: normal; font-weight: normal; font-stretch: normal; font-size: medium; line-height: normal; font-family: sans-serif; font-feature-settings: normal; text-indent: 0px; text-align: start; text-decoration: none solid rgb(0, 0, 0); letter-spacing: normal; word-spacing: normal; text-transform: none; writing-mode: lr-tb; direction: ltr; text-orientation: mixed; dominant-baseline: auto; baseline-shift: baseline; text-anchor: start; white-space: normal; clip-rule: nonzero; display: inline; overflow: visible; visibility: visible; opacity: 1; isolation: auto; mix-blend-mode: normal; color-interpolation: srgb; color-interpolation-filters: linearrgb; vector-effect: none; fill: rgb(32, 185, 112); fill-opacity: 1; fill-rule: nonzero; stroke: none; stroke-width: 2; stroke-linecap: round; stroke-linejoin: round; stroke-miterlimit: 4; stroke-dasharray: none; stroke-dashoffset: 0; stroke-opacity: 1; color-rendering: auto; image-rendering: auto; shape-rendering: auto; text-rendering: auto;"></path>
</g>
</svg>